<svg xmlns="http://www.w3.org/2000/svg" viewBox="0 0 72.5 102.5"><defs><style>.cls-1{fill:#414042;}</style></defs><title>Asset 6</title><g id="Layer_2" data-name="Layer 2"><g id="Layer_2-2" data-name="Layer 2"><path class="cls-1" d="M32.5,66.25a1.25,1.25,0,0,0-2.5,0c0,6.25,3.76,6.25,6.25,6.25s6.25,0,6.25-6.25a1.25,1.25,0,0,0-2.5,0C40,70,38.75,70,36.25,70S32.5,70,32.5,66.25Z"/><path class="cls-1" d="M20.13,40.69l-4.77,9.54L.85,55.06a1.25,1.25,0,0,0,.4,2.44,1.44,1.44,0,0,0,.4-.06l15-5a1.31,1.31,0,0,0,.72-.63l4.44-8.88,8.67,4.33c1.8,1.85,2.6,3.68,2.27,5.3a3.51,3.51,0,0,1-2,2.53c-.34.14-.68.23-1,.33-2.41.7-4.16,1.71-4.59,7.25L18.9,64a1.24,1.24,0,0,0-.83.6,1.26,1.26,0,0,0-.11,1l5.55,16.63-8.4,18.5a1.27,1.27,0,0,0,.62,1.66,1.39,1.39,0,0,0,.52.11,1.26,1.26,0,0,0,1.14-.73l8.6-19A1.27,1.27,0,0,0,26,81.9L20.78,66.14,25,65.25c0,.34,0,.63,0,1C25,77.5,31.24,77.5,36.25,77.5s11.25,0,11.25-11.25c0-.35,0-.67,0-1l4.23.88L46.46,81.9a1.27,1.27,0,0,0,0,.92l8.6,19a1.26,1.26,0,0,0,1.14.73,1.39,1.39,0,0,0,.52-.11,1.26,1.26,0,0,0,.62-1.66L49,82.23,54.54,65.6a1.26,1.26,0,0,0-.11-1,1.22,1.22,0,0,0-.83-.6l-6.28-1.31c-.45-5.55-2.2-6.56-4.59-7.25-.33-.1-.67-.19-1-.32a3.56,3.56,0,0,1-2-2.54c-.33-1.62.47-3.45,2.28-5.3l8.66-4.33,4.44,8.88a1.31,1.31,0,0,0,.72.63l15,5a1.44,1.44,0,0,0,.4.06,1.25,1.25,0,0,0,.4-2.44L57.14,50.23l-4.77-9.54a1.25,1.25,0,0,0-1.68-.56l-6.2,3.1a7,7,0,0,0,0-3.41l7.68-7.69a1.22,1.22,0,0,0,.37-.88V27l9.31-4.65a1.25,1.25,0,0,0-1.12-2.24l-10,5A1.26,1.26,0,0,0,50,26.25v4.48l-6.51,6.52a10.86,10.86,0,0,0-1-1.48c0-.44,0-1.14-.08-2.05,0-.2,0-.24,0-.37a5.21,5.21,0,0,0,3.75-5.14,20.45,20.45,0,0,0-2.39-8.12l7.89-2.66a1.15,1.15,0,0,0,.48-.3l15-15A1.24,1.24,0,0,0,65.37.37L50.57,15.16l-8.16,2.75c-1.58-2.16-3.62-3.76-6.16-3.76s-4.58,1.6-6.16,3.76l-8.16-2.75L7.13.37A1.24,1.24,0,0,0,5.37,2.13l15,15a1.15,1.15,0,0,0,.48.3l7.89,2.66a18.74,18.74,0,0,0-1.06,2.3,19.77,19.77,0,0,0-.81,2.54c-.39,1.59-.77,3.63-.21,5.21a4.89,4.89,0,0,0,1.36,2,7.07,7.07,0,0,0,2.05,1.21c0,.11,0,.11,0,.27-.07,1,0,1.71-.05,2.16a11,11,0,0,0-1,1.48L22.5,30.73V26.25a1.26,1.26,0,0,0-.69-1.12l-10-5a1.27,1.27,0,0,0-1.68.56,1.25,1.25,0,0,0,.56,1.68L20,27v4.23a1.22,1.22,0,0,0,.37.88l7.69,7.69a7.16,7.16,0,0,0,0,3.41l-6.2-3.1A1.27,1.27,0,0,0,20.13,40.69ZM42.28,30.63c-.1-1.62-.29-3.69-.59-5.82a4.19,4.19,0,0,1,2,3.39,5.73,5.73,0,0,1,0,.66A2.55,2.55,0,0,1,42.28,30.63Zm-6-14c2.38,0,4.41,2.64,5.74,5.53a4.22,4.22,0,0,0-.68-.31,3,3,0,0,0-1-.28,1.32,1.32,0,0,0-1.21.52A2,2,0,0,0,39,23.47c.25,1.8.51,3.6.67,5.41.07.86.13,1.72.18,2.59a21.51,21.51,0,0,1-7.16,0c.12-2.27.33-4.53.67-6.77A9.51,9.51,0,0,0,33.6,23a1.35,1.35,0,0,0-1.06-1.43,4.07,4.07,0,0,0-2,.49C31.89,19.23,33.9,16.65,36.25,16.65Zm-7.4,11.56a7.92,7.92,0,0,1,.11-1,4,4,0,0,1,1.86-2.46c-.31,2.17-.5,4.28-.6,5.88A2.6,2.6,0,0,1,28.85,28.21Zm7.4,6.06A22.3,22.3,0,0,0,39.92,34c.08,1.38.08,2.25.08,2.27a1.25,1.25,0,0,0,.36.88,7.48,7.48,0,0,1,1.56,2.67c.69,2,.18,3.84-1.55,5.57-3.18,3.17-3.43,5.92-3.08,7.68a6.08,6.08,0,0,0,3.49,4.36,13,13,0,0,0,1.25.41c1.58.46,2.62.76,2.88,6A17.61,17.61,0,0,1,45,66.25C45,75,41.33,75,36.25,75s-8.75,0-8.75-8.75a20.08,20.08,0,0,1,.1-2.49c.25-5.18,1.29-5.48,2.87-5.94a11.63,11.63,0,0,0,1.26-.42,6.05,6.05,0,0,0,3.48-4.35c.35-1.76.1-4.51-3.08-7.68a5.09,5.09,0,0,1-1.54-5.59,7.4,7.4,0,0,1,1.55-2.65,1.25,1.25,0,0,0,.36-.88s0-.88,0-2.27A22.81,22.81,0,0,0,36.25,34.27Z"/></g></g></svg>