<svg xmlns="http://www.w3.org/2000/svg" viewBox="0 0 62.5 102.5"><defs><style>.cls-1{fill:#414042;}</style></defs><title>Asset 18</title><g id="Layer_2" data-name="Layer 2"><g id="Layer_2-2" data-name="Layer 2"><path class="cls-1" d="M39.89,62.13a1.24,1.24,0,0,0-1.57.83c-2.68,8.69-6,14.51-7,14.86-1.17-.35-4.45-6.17-7.13-14.86a1.27,1.27,0,0,0-1.57-.83,1.24,1.24,0,0,0-.82,1.56c.85,2.78,5.33,16.62,9.46,16.62s8.61-13.84,9.46-16.62A1.24,1.24,0,0,0,39.89,62.13Z"/><path class="cls-1" d="M46.8,37.37a1.24,1.24,0,0,0,.57-.56l4.81-9.63,9.63-4.81a1.25,1.25,0,0,0-1.12-2.24l-10,5a1.26,1.26,0,0,0-.56.56l-4.81,9.62-2.87,1.42a22.79,22.79,0,0,0-5-8.13V21.77l9.63-9.64a1.22,1.22,0,0,0,.37-.88v-10a1.25,1.25,0,0,0-2.5,0v9.48l-8,8a6.23,6.23,0,0,0-11.44,0l-8-8V1.25a1.25,1.25,0,0,0-2.5,0v10a1.22,1.22,0,0,0,.37.88L25,21.77V28.6a23,23,0,0,0-4.95,8.13l-2.87-1.42-4.81-9.62a1.26,1.26,0,0,0-.56-.56l-10-5A1.25,1.25,0,0,0,.69,22.37l9.63,4.81,4.81,9.63a1.24,1.24,0,0,0,.57.56l3.54,1.75a23.45,23.45,0,0,0-.49,2.76c-2.62.46-3.26,3.37-3.46,5L5.85,50.06a1.31,1.31,0,0,0-.72.63l-5,10a1.25,1.25,0,0,0,2.24,1.12l4.77-9.54L15,49.64c0,.49,0,1,0,1.61a60.29,60.29,0,0,0,2.46,17l-7.09,7.1A1.23,1.23,0,0,0,10,76.55l4.75,19-9.1,4.55a1.25,1.25,0,0,0,1.12,2.24l10-5A1.25,1.25,0,0,0,17.46,96L12.63,76.63l5.7-5.69C21.66,80.49,27,87.5,31.25,87.5s9.59-7,12.92-16.56l5.7,5.69L45,96a1.24,1.24,0,0,0,.65,1.42l10,5a1.25,1.25,0,1,0,1.12-2.24L47.7,95.58l4.76-19a1.23,1.23,0,0,0-.33-1.18L45,68.27a60.29,60.29,0,0,0,2.46-17c0-.62,0-1.12,0-1.61l7.9,2.63,4.77,9.54a1.25,1.25,0,0,0,2.24-1.12l-5-10a1.31,1.31,0,0,0-.72-.63L47.2,46.92c-.22-1.74-.91-4.6-3.45-5.05a23.65,23.65,0,0,0-.49-2.75ZM37.29,43.5c-.63-5-3-8.5-6-8.5s-5.41,3.49-6,8.5l-.84-.33a24.44,24.44,0,0,0-3.13-1.08,21.32,21.32,0,0,1,5.89-12.16h0c1.8-1.79,3.34-2.43,4.12-2.43s2.32.64,4.13,2.45a21.25,21.25,0,0,1,5.88,12.14,24.54,24.54,0,0,0-3.14,1.08Zm-2.42.89a12.38,12.38,0,0,1-3.62.61,12.38,12.38,0,0,1-3.62-.61c.39-4.1,2.13-6.89,3.62-6.89S34.48,40.29,34.87,44.39ZM31.25,17.5A3.75,3.75,0,0,1,35,21.25v5.18A7.09,7.09,0,0,0,31.25,25a7.12,7.12,0,0,0-3.75,1.42V21.25A3.75,3.75,0,0,1,31.25,17.5ZM45,51.25a58.25,58.25,0,0,1-2.54,17C39.14,79.05,33.72,85,31.25,85s-7.89-6-11.21-16.72a58.25,58.25,0,0,1-2.54-17A20.8,20.8,0,0,1,17.7,48c.29-3.32,1.13-3.68,1.77-3.68l.26,0a13.71,13.71,0,0,1,3.69,1.18,20.84,20.84,0,0,0,7.83,2,20.84,20.84,0,0,0,7.83-2A13.54,13.54,0,0,1,42.8,44.3h0c.63,0,1.66-.1,2,3.76A20.18,20.18,0,0,1,45,51.25Z"/></g></g></svg>