<svg xmlns="http://www.w3.org/2000/svg" viewBox="0 0 62.5 102.5"><defs><style>.cls-1{fill:#414042;}</style></defs><title>Asset 13</title><g id="Layer_2" data-name="Layer 2"><g id="Layer_2-2" data-name="Layer 2"><path class="cls-1" d="M62.37,20.69a1.25,1.25,0,0,0-1.68-.56l-10,5a1.26,1.26,0,0,0-.63,1.52l4.58,13.71L41.15,43.73A8.75,8.75,0,0,0,37.5,30.39l0-4.44-.05-.2A6.19,6.19,0,0,0,33,21.22C42.31,11,37.42.8,37.37.69a1.25,1.25,0,1,0-2.24,1.12c0,.09,4.15,8.67-3.88,17.59-8-8.86-4.06-17.23-3.88-17.6A1.25,1.25,0,0,0,26.8.13a1.27,1.27,0,0,0-1.67.56C25.08.8,20.19,11,29.53,21.22a6.19,6.19,0,0,0-4.44,4.53,2.92,2.92,0,0,0-.09.5v4.13a8.8,8.8,0,0,0-3.65,13.35L7.86,40.36l4.58-13.71a1.26,1.26,0,0,0-.63-1.52l-10-5a1.27,1.27,0,0,0-1.68.56,1.25,1.25,0,0,0,.56,1.68l9,4.51-4.66,14a1.29,1.29,0,0,0,.09,1,1.23,1.23,0,0,0,.8.61l16.72,4.18-7,3.49-10,5a1.26,1.26,0,0,0-.56.56l-5,10a1.25,1.25,0,0,0,2.24,1.12l4.81-9.63L15,53.27V65.48L5.69,70.13A1.24,1.24,0,0,0,5,71.55L9.92,91.1l-4.79,9.59a1.25,1.25,0,0,0,2.24,1.12l5-10a1.28,1.28,0,0,0,.09-.86l-4.76-19L15,68.27v18A16.27,16.27,0,0,0,31.25,102.5,16.29,16.29,0,0,0,47.5,86.25v-18l7.29,3.65L50,91a1.28,1.28,0,0,0,.09.86l5,10a1.25,1.25,0,0,0,2.24-1.12L52.58,91.1l4.88-19.55a1.25,1.25,0,0,0-.65-1.42L47.5,65.48V53.27l7.82,3.91,4.81,9.63a1.25,1.25,0,0,0,2.24-1.12l-5-10a1.26,1.26,0,0,0-.56-.56l-10-5-7-3.49,16.72-4.18a1.23,1.23,0,0,0,.8-.61,1.29,1.29,0,0,0,.09-1l-4.66-14,9-4.51A1.25,1.25,0,0,0,62.37,20.69ZM26.63,45,25,43.89a6.24,6.24,0,0,1-2.8-5.22,16.8,16.8,0,0,0,3.49-.42,27.21,27.21,0,0,1,5.59-.75,27.21,27.21,0,0,1,5.59.75,28.07,28.07,0,0,0,3.48.42,6.19,6.19,0,0,1-2.79,5.22L35.87,45ZM23.44,34.69c1.4-1.2,4.28-2.19,7.81-2.19s6.44,1,7.83,2.21a6,6,0,0,1,.84,1.51,18.47,18.47,0,0,1-2.56-.41A28.83,28.83,0,0,0,31.25,35a28.83,28.83,0,0,0-6.11.81,18,18,0,0,1-2.56.44A6.08,6.08,0,0,1,23.44,34.69Zm4.07-8.34a3.86,3.86,0,0,1,7.49,0h0v4a19.71,19.71,0,0,0-7.5,0Zm-10,59.9V52l9.05-4.52H30V99.87A13.72,13.72,0,0,1,17.5,86.25ZM41,96a13.61,13.61,0,0,1-8.47,3.91V47.5H36L45,52V86.25A13.67,13.67,0,0,1,41,96Z"/></g></g></svg>