<svg xmlns="http://www.w3.org/2000/svg" viewBox="0 0 72.5 102.5"><defs><style>.cls-1{fill:#414042;}</style></defs><title>Asset 8</title><g id="Layer_2" data-name="Layer 2"><g id="Layer_2-2" data-name="Layer 2"><path class="cls-1" d="M21.37,31c-.19.67-.34,1.34-.53,2s-.51,1.9-1,3.74l-2.6-3.54a1.14,1.14,0,0,0-.5-.4l-6-2.71a1.23,1.23,0,0,0-1.12.05l-9,5a1.25,1.25,0,0,0,1.22,2.18l8.41-4.7L15.44,35l3.63,4.95c-.42,1.69-.87,3.6-1.33,5.66L10,52.51a1.21,1.21,0,0,0-.42.93V64.86L6.24,73.07a1.25,1.25,0,0,0,.68,1.63,1.36,1.36,0,0,0,.48.09A1.24,1.24,0,0,0,8.55,74L12,65.57a1.23,1.23,0,0,0,.09-.47V54l4.76-4.26c-2,9.74-3.84,21.33-2.83,28.2a3.45,3.45,0,0,0,3.4,3A3.31,3.31,0,0,0,19.62,80c1-.83,2.69-2.43,4.67-4.54.59,2.08,1.17,4.16,1.88,6.16C28,87,31.49,95.38,35,97.13v4.12a1.25,1.25,0,0,0,2.5,0V97.13c3.51-1.75,7-10.18,8.83-15.47.62-1.75,1.27-3.86,2-6.21A64.71,64.71,0,0,0,53,80a3.32,3.32,0,0,0,2.22.86,3.4,3.4,0,0,0,1.17-.21,3.47,3.47,0,0,0,2.23-2.75c1-6.94-.81-18.62-2.9-28.61L60.91,54V65.1a1.07,1.07,0,0,0,.1.47L64.44,74a1.25,1.25,0,0,0,1.16.78,1.31,1.31,0,0,0,.47-.09,1.25,1.25,0,0,0,.69-1.63l-3.35-8.21V53.44a1.24,1.24,0,0,0-.41-.93l-8-7.19s-.11,0-.16-.06c-.4-1.76-.79-3.43-1.17-5L57.56,35l5.15-2.31,7.91,4.67a1.25,1.25,0,1,0,1.26-2.15l-8.46-5a1.24,1.24,0,0,0-1.14-.06l-6,2.71a1.14,1.14,0,0,0-.5.4l-2.88,3.92c-.28-1.11-.57-2.21-.86-3.31-.19-.72-.39-1.45-.59-2.17a13.19,13.19,0,0,0-.58-1.47,13.47,13.47,0,0,0-.72-1.48,6.57,6.57,0,0,0-.56-.79l4.86-4a1.34,1.34,0,0,0,.42-.65L58,11.57A1.25,1.25,0,0,0,57.07,10a1.24,1.24,0,0,0-1.53.89l-3,11.36-3.71,3a14.87,14.87,0,0,0,.24-2A14.23,14.23,0,0,0,48.57,20a6,6,0,0,0-7-8.33c-.2-.09-.41-.14-.62-.22.89-4.36,1.49-9.81,1.51-10.06A1.25,1.25,0,0,0,40,1.11c0,.06-.59,5.39-1.43,9.61a13,13,0,0,0-4.66,0c-.84-4.22-1.42-9.55-1.43-9.61A1.25,1.25,0,0,0,30,1.38c0,.25.62,5.7,1.51,10.06-.21.08-.42.13-.62.22a6,6,0,0,0-7.5,5.94A6.16,6.16,0,0,0,23.93,20a14.23,14.23,0,0,0-.48,3.31,14.87,14.87,0,0,0,.19,1.55l-3.16-2.56-3-11.36a1.25,1.25,0,1,0-2.42.64l3.13,11.75a1.21,1.21,0,0,0,.42.65l4.55,3.69a7.92,7.92,0,0,0-.81,1.09,9.63,9.63,0,0,0-.69,1.45C21.54,30.46,21.45,30.73,21.37,31ZM25.47,29c.92-.37,2.48.45,4.14,1.33,2,1,4.18,2.22,6.64,2.22s4.67-1.16,6.62-2.18c1.67-.87,3.23-1.7,4.16-1.31.59.25,1.15,1.1,1.62,2.47L45.74,42.23A9.39,9.39,0,0,1,38,49.15c-.33,0-1.25.31-1.25,1.15v0h0A26.71,26.71,0,0,0,37,55H35.59a21,21,0,0,0,.26-4.7,1.17,1.17,0,0,0-1.17-1.14,9.53,9.53,0,0,1-7.82-6.94l-3-10.91C24.35,30,24.89,29.18,25.47,29ZM42.38,85H30.12c-.32-.77-.64-1.63-1-2.5h14.2C43,83.37,42.7,84.23,42.38,85ZM28.27,80c-.28-.82-.51-1.67-.77-2.5H45.07c-.28.91-.55,1.7-.82,2.5Zm17.54-5H26.73c-.16-.55-.36-1.07-.5-1.62.24-.28.48-.58.71-.88H45.67l.64.77C46.14,73.9,46,74.41,45.81,75ZM35.11,57.5h2.38c.21.84.46,1.67.75,2.5h-3.9A22.5,22.5,0,0,0,35.11,57.5Zm-1.81,5h6c.11.24,1,2,1.26,2.5H32.09C32.51,64.22,32.91,63.38,33.3,62.5Zm-2.69,5H42c.07.09,1.21,1.79,1.74,2.5H28.9C29.47,69.24,30,68.39,30.61,67.5ZM18,78.16a.83.83,0,0,1-.87.17,1,1,0,0,1-.62-.77C14.92,67,20.53,44,22.61,36.1l1.84,6.78a12,12,0,0,0,8.94,8.56A19.58,19.58,0,0,1,32.92,56a20,20,0,0,1-1.58,4.78,35.08,35.08,0,0,1-2.46,4.82,45.29,45.29,0,0,1-3.52,4.88c-.48.63-1,1.2-1.45,1.74A65.21,65.21,0,0,1,18,78.16ZM36.25,95c-.64,0-2.57-2-5.07-7.5H41.32C38.82,93,36.89,95,36.25,95ZM56.11,77.57a.93.93,0,0,1-.61.76.82.82,0,0,1-.88-.17,64.42,64.42,0,0,1-6-6c-.52-.59-1.06-1.23-1.59-1.9-1-1.29-1.94-2.59-2.82-3.91a35,35,0,0,1-3.13-5.87,24.43,24.43,0,0,1-1.25-3.89c-.09-.37-.17-.75-.24-1.13-.24-1.29-.4-3.86-.4-4A13.76,13.76,0,0,0,46.86,46a11.46,11.46,0,0,0,1.3-3.08L50,36.07C52.44,45.5,57.62,67.37,56.11,77.57ZM46.5,17.1a6.81,6.81,0,0,0-1-.2,7.34,7.34,0,0,0-5.62,2.59,3.68,3.68,0,0,1-.58-1.89,3.61,3.61,0,0,1,2.59-3.47A3.52,3.52,0,0,1,43,14,3.62,3.62,0,0,1,46.5,17.1Zm-7.79-3.84A6,6,0,0,0,36.8,17.6a6.13,6.13,0,0,0,1.54,4.08,6.38,6.38,0,0,0,.75.72,1.32,1.32,0,0,0,1.83,0,2.28,2.28,0,0,0,.34-.55,3.52,3.52,0,0,1,.3-.45,4.44,4.44,0,0,1,.75-.75,5.17,5.17,0,0,1,3.86-1.07c0,.06,0,.12,0,.17a1.29,1.29,0,0,0-.06.48,11.61,11.61,0,0,1,.46,3.12,11.76,11.76,0,0,1-.32,2.58,1.15,1.15,0,0,0,.1.55,11.71,11.71,0,0,0-4.61,1.67C39.93,29,38.09,30,36.25,30s-3.68-1-5.47-1.93a11.81,11.81,0,0,0-4.6-1.7,1,1,0,0,0,.09-.49A11.76,11.76,0,0,1,26,23.3a11.61,11.61,0,0,1,.46-3.12,1.29,1.29,0,0,0-.06-.48c0-.05,0-.11,0-.17s.92,0,1,0a5,5,0,0,1,1,.17,5.06,5.06,0,0,1,1.84.92,4.35,4.35,0,0,1,.82.84c.31.42.42.92.93,1.17,1,.51,1.89-.46,2.46-1.19a6.18,6.18,0,0,0,1-2,6.35,6.35,0,0,0,.26-1.79,6.06,6.06,0,0,0-1.9-4.35A10.32,10.32,0,0,1,38.71,13.26ZM29.55,14A3.74,3.74,0,0,1,33.2,17.6a3.68,3.68,0,0,1-.58,1.89A7.34,7.34,0,0,0,27,16.9a6.81,6.81,0,0,0-1,.2A3.62,3.62,0,0,1,29.55,14Z"/></g></g></svg>