<svg xmlns="http://www.w3.org/2000/svg" viewBox="0 0 102.5 102.5"><defs><style>.cls-1{fill:#414042;}</style></defs><title>Asset 4</title><g id="Layer_2" data-name="Layer 2"><g id="Layer_2-2" data-name="Layer 2"><path class="cls-1" d="M1.25,67.5a1.25,1.25,0,0,0,1.12-.69l4.77-9.54,13-4.33a102,102,0,0,0,1.27,14.33l-5.72,2.86A1.24,1.24,0,0,0,15,71.55L19.92,91.1l-4.79,9.59a1.25,1.25,0,0,0,2.24,1.12l5-10a1.28,1.28,0,0,0,.09-.86l-4.76-19L22,69.77c3.13,14.56,10,23.57,20.64,26.64h.08a32.88,32.88,0,0,0,8.54,1.08,33.46,33.46,0,0,0,8.65-1.1c10.59-3.08,17.51-12.07,20.65-26.62l4.24,2.14L80,91a1.28,1.28,0,0,0,.09.86l5,10a1.25,1.25,0,0,0,2.24-1.12L82.58,91.1l4.88-19.55a1.26,1.26,0,0,0-.65-1.42l-5.73-2.89A100.06,100.06,0,0,0,82.43,53l12.93,4.31,4.77,9.54a1.25,1.25,0,1,0,2.24-1.12l-5-10a1.31,1.31,0,0,0-.72-.63L82.48,50.34c0-.39,0-.75,0-1.14A86.7,86.7,0,0,0,82,39.85l9.52-2.39a1.24,1.24,0,0,0,.79-.61,1.29,1.29,0,0,0,.09-1l-4.66-14,9-4.51a1.25,1.25,0,1,0-1.12-2.24l-10,5a1.26,1.26,0,0,0-.63,1.52l4.58,13.72-8,2c-.69-4.08-1.85-6.71-3.67-8a5.72,5.72,0,0,0-3.85-.89,22.8,22.8,0,0,0-4.24-6.82l.24-.46a9,9,0,0,0-7-13,8.61,8.61,0,0,1,8-5.61,1.25,1.25,0,0,0,0-2.5A11.14,11.14,0,0,0,60.48,8.16h-.23L52.57,9.72a6.6,6.6,0,0,1-2.62,0l-7.7-1.55H42A11.14,11.14,0,0,0,31.25,0a1.25,1.25,0,0,0,0,2.5,8.61,8.61,0,0,1,8,5.61,9,9,0,0,0-6.95,13.07l.23.44a22.78,22.78,0,0,0-4.24,6.83,5.7,5.7,0,0,0-3.85.88c-1.82,1.32-3,4-3.67,8l-7.95-2,4.58-13.72a1.26,1.26,0,0,0-.63-1.52l-10-5a1.27,1.27,0,0,0-1.68.56,1.25,1.25,0,0,0,.56,1.68l9,4.51-4.66,14a1.29,1.29,0,0,0,.09,1,1.24,1.24,0,0,0,.79.61l9.52,2.39A86.7,86.7,0,0,0,20,49.2c0,.4,0,.74,0,1.13L5.85,55.06a1.31,1.31,0,0,0-.72.63l-5,10A1.25,1.25,0,0,0,1.25,67.5Zm44.63,27a19.63,19.63,0,0,0,5.33-7s0,0,0,0,0,0,0,0a19.63,19.63,0,0,0,5.33,7A32.27,32.27,0,0,1,45.88,94.5Zm-11-71.87c4.53-4.52,10.79-5.13,16.32-5.13s11.79.61,16.33,5.15a19.69,19.69,0,0,1,4,6.23A27.45,27.45,0,0,0,68,30.36c-.25-.4-.5-.84-.75-1.18-4.56-6.5-11-7.33-16-7.33s-11.46.83-16,7.3c-.27.35-.51.8-.77,1.21a28,28,0,0,0-3.6-1.48A20,20,0,0,1,34.93,22.63Zm2.34,8c3.09-4.39,7.27-6.27,14-6.27s10.89,1.88,14,6.3c.18.24.34.54.51.81l-.29.15c-1.22.61-2.51,1.24-3.82,1.84-3.28-3.75-7.24-4.3-10.4-4.3s-7.12.55-10.4,4.3c-1.31-.6-2.6-1.23-3.82-1.84l-.29-.15C36.92,31.18,37.08,30.87,37.27,30.62Zm14,1c3.51,0,6,.91,7.92,2.85a22.1,22.1,0,0,1-7.92,1.7,22.1,22.1,0,0,1-7.92-1.7C45.3,32.56,47.74,31.65,51.25,31.65Zm25.3-.29c1.4,1,2.38,3.6,2.91,7.7A80.77,80.77,0,0,1,80,49.2a101.16,101.16,0,0,1-1.53,18.51c-2.72,14.28-9,23-18.73,26.09-2.52-1.79-7.24-6-7.24-12.55V38.57c5.18-.34,9.91-2.62,14.1-4.73a29.53,29.53,0,0,1,7-2.91A3.57,3.57,0,0,1,76.55,31.36ZM35.21,13.08a6.46,6.46,0,0,1,6.54-2.46l7.72,1.56a9.58,9.58,0,0,0,3.58,0l7.7-1.56A6.56,6.56,0,0,1,68,19.75C63.05,15.63,56.8,15,51.25,15s-11.8.63-16.79,4.75A6.44,6.44,0,0,1,35.21,13.08ZM26,31.36a3,3,0,0,1,1.82-.55,5.51,5.51,0,0,1,1.1.12,29.64,29.64,0,0,1,7,2.91C40.09,36,44.82,38.23,50,38.57V81.25c0,6.54-4.7,10.74-7.22,12.54C29.34,89.57,22.5,74.61,22.5,49.2A80.77,80.77,0,0,1,23,39.06C23.57,35,24.55,32.37,26,31.36Z"/></g></g></svg>