<svg xmlns="http://www.w3.org/2000/svg" viewBox="0 0 92.5 102.5"><defs><style>.cls-1{fill:#414042;}</style></defs><title>Asset 7</title><g id="Layer_2" data-name="Layer 2"><g id="Layer_2-2" data-name="Layer 2"><path class="cls-1" d="M16.88,50.17a1.26,1.26,0,0,0-1.07-.09,1.27,1.27,0,0,0-.75.77l-4.9,14.72L.37,75.37a1.24,1.24,0,0,0,0,1.76,1.21,1.21,0,0,0,.88.37,1.21,1.21,0,0,0,.88-.37l10-10a1.17,1.17,0,0,0,.31-.48L17,53.11l3.66,2.15a92.18,92.18,0,0,0-.61,11,95.38,95.38,0,0,0,.5,9.93l-3.9-1.13a1.27,1.27,0,0,0-1,.12A1.22,1.22,0,0,0,15,76L10.12,95.61l-4.75,4.76a1.24,1.24,0,0,0,0,1.76,1.23,1.23,0,0,0,1.76,0l5-5a1.21,1.21,0,0,0,.33-.58l4.69-18.74,3.72,1.08c3,20.38,13.82,23.61,25.38,23.61S68.5,99.3,71.59,79.2l3.78-1.32L80,96.55a1.21,1.21,0,0,0,.33.58l5,5a1.23,1.23,0,0,0,1.76,0,1.24,1.24,0,0,0,0-1.76l-4.75-4.76L77.46,76a1.25,1.25,0,0,0-.62-.8,1.29,1.29,0,0,0-1-.08L72,76.41a93.84,93.84,0,0,0,.52-10.16,94,94,0,0,0-.56-10.64l3.64-2.41,4.48,13.45a1.17,1.17,0,0,0,.31.48l10,10a1.23,1.23,0,0,0,1.76,0,1.24,1.24,0,0,0,0-1.76l-9.79-9.8-4.9-14.72a1.31,1.31,0,0,0-.78-.78,1.23,1.23,0,0,0-1.1.14l-4,2.68a39.5,39.5,0,0,0-3.34-11.28l7.93.88h.14a1.24,1.24,0,0,0,1-.56l10-15a1.25,1.25,0,1,0-2.08-1.38L75.63,39.92,67.36,39c-.34-5.53-2-10-5-13.13a18.93,18.93,0,0,0-1.21-6,6.15,6.15,0,0,0,1.31-3.66A6.21,6.21,0,0,0,51.77,12a22.58,22.58,0,0,0-4.31-.62s0-.05,0-.08A8.77,8.77,0,0,1,56.25,2.5a1.25,1.25,0,0,0,0-2.5,11.23,11.23,0,0,0-10,6.2,11.23,11.23,0,0,0-10-6.2,1.25,1.25,0,0,0,0,2.5A8.77,8.77,0,0,1,45,11.25s0,.05,0,.08a22.58,22.58,0,0,0-4.31.62,6.17,6.17,0,0,0-9.42,8,18.93,18.93,0,0,0-1.21,6c-3,3.19-4.64,7.65-5,13.24l-8.26.82L7.29,25.56a1.25,1.25,0,0,0-2.08,1.38l10,15a1.24,1.24,0,0,0,1,.56h.12l7.92-.79A38.72,38.72,0,0,0,21,52.6ZM22.5,66.25c0-30,11.39-33.51,22.5-33.73V86.25c0,6.43-4.54,10.68-7.51,12.79C29.28,96.78,22.5,89.41,22.5,66.25Zm23.75-52.5c7.86,0,12.38,3.42,13.46,10.17-2.39-.9-5.1-.31-7.74.26a26.67,26.67,0,0,1-5.72.82,26.67,26.67,0,0,1-5.72-.82,24.74,24.74,0,0,0-5-.72,7.86,7.86,0,0,0-2.77.46C33.87,17.17,38.39,13.75,46.25,13.75ZM32.18,27.23c1.8-1.79,4.15-1.4,7.82-.6a29.45,29.45,0,0,0,6.25.87,29.45,29.45,0,0,0,6.25-.87c3.67-.8,6-1.2,7.82.6a16.33,16.33,0,0,1,4.3,9.11C59.75,31.13,53.13,30,46.25,30s-13.5,1.13-18.37,6.34A16.33,16.33,0,0,1,32.18,27.23Zm8.54,72.44a19.79,19.79,0,0,0,5.53-7.27,19.94,19.94,0,0,0,5.57,7.27,43.15,43.15,0,0,1-5.57.33A42.64,42.64,0,0,1,40.72,99.67ZM55.05,99C52.5,97.27,47.5,93,47.5,86.25V32.52C58.61,32.74,70,36.23,70,66.25,70,89.38,63.23,96.76,55.05,99Zm1.2-86.53A3.75,3.75,0,0,1,60,16.25a3.42,3.42,0,0,1-.2,1,12.61,12.61,0,0,0-5.27-4.33A3.65,3.65,0,0,1,56.25,12.5ZM32.5,16.25a3.75,3.75,0,0,1,3.75-3.75,3.65,3.65,0,0,1,1.72.43,12.61,12.61,0,0,0-5.27,4.33A3.42,3.42,0,0,1,32.5,16.25Z"/></g></g></svg>