<svg xmlns="http://www.w3.org/2000/svg" viewBox="0 0 72.5 102.5"><defs><style>.cls-1{fill:#414042;}</style></defs><title>Asset 15</title><g id="Layer_2" data-name="Layer 2"><g id="Layer_2-2" data-name="Layer 2"><path class="cls-1" d="M61.64,22.44a1.25,1.25,0,0,0,.86-1.19V11.77l9.63-9.64A1.24,1.24,0,0,0,70.37.37l-10,10a1.22,1.22,0,0,0-.37.88v9.1l-9,3c0-.05,0-.1-.06-.14a31.21,31.21,0,0,0-3.49-3.06V11.25a6.45,6.45,0,0,0-2.7-5,6.13,6.13,0,0,0,2.7-5,1.25,1.25,0,0,0-2.5,0A3.75,3.75,0,0,1,41.25,5h-10A3.75,3.75,0,0,1,27.5,1.25a1.25,1.25,0,0,0-2.5,0,6.13,6.13,0,0,0,2.7,5,6.45,6.45,0,0,0-2.7,5v8.87a31.21,31.21,0,0,0-3.49,3.06s0,.09-.06.14l-8.95-3v-9.1a1.22,1.22,0,0,0-.37-.88l-10-10A1.24,1.24,0,0,0,.37,2.13L10,11.77v9.48a1.25,1.25,0,0,0,.86,1.19l8.54,2.83a14.82,14.82,0,0,0-1.33,1.54s0,0-.05,0,0,0,0,0a15,15,0,0,0-2.79,6.9,11.47,11.47,0,0,0-.15,1.65L5.69,40.13a1.26,1.26,0,0,0-.56.56l-5,10a1.25,1.25,0,0,0,2.24,1.12l4.81-9.63L15,38.27V45.9L6.35,60.33a16.57,16.57,0,0,0,2.5,20.28l.88.89-4.6,9.19a1.25,1.25,0,0,0,.24,1.44l10,10a1.23,1.23,0,0,0,1.76,0,1.24,1.24,0,0,0,0-1.76L7.77,91l4.6-9.19a1.29,1.29,0,0,0,0-1.22A14.08,14.08,0,0,1,15,64.31l0,0v2A16.27,16.27,0,0,0,31.25,82.5h10A16.27,16.27,0,0,0,57.5,66.25v-2l0,0a14,14,0,0,1,2.6,16.37,1.19,1.19,0,0,0,0,1.13L64.73,91l-9.36,9.37a1.24,1.24,0,0,0,0,1.76,1.23,1.23,0,0,0,1.76,0l10-10a1.25,1.25,0,0,0,.24-1.44l-4.6-9.19.88-.89a16.57,16.57,0,0,0,2.5-20.28L57.5,45.9V38.27l7.82,3.91,4.81,9.63a1.25,1.25,0,0,0,2.24-1.12l-5-10a1.26,1.26,0,0,0-.56-.56l-9.34-4.67A15.92,15.92,0,0,0,53.1,25.27ZM41.25,7.5A3.73,3.73,0,0,1,44.6,9.64a38.56,38.56,0,0,1-16.7,0A3.73,3.73,0,0,1,31.25,7.5ZM27.5,12.1a40.91,40.91,0,0,0,8.75,1,40.91,40.91,0,0,0,8.75-1v6.26C41.59,16.22,38.27,15,36.25,15s-5.34,1.22-8.75,3.36Zm-.37,9.53c.57-.4,1.14-.79,1.73-1.15,2.15-1.35,4.77-3,7.39-3,1.72,0,5.41,1.45,9.12,4.13,1.34,1,2.55,2.08,3.79,3.17.76.66,1.38,1.41,2.08,2.13a37.8,37.8,0,0,1-15,3.07,37.8,37.8,0,0,1-15-3.07l1.06-1.1A29.57,29.57,0,0,1,27.13,21.63ZM13.19,62.54A16.59,16.59,0,0,0,8.43,76a14.1,14.1,0,0,1,.06-14.42L15,50.76v10Zm4.31,3.71v-30a9.9,9.9,0,0,1,.19-2,12.68,12.68,0,0,1,2-5.25A39.85,39.85,0,0,0,35,32.43V80H31.25A13.77,13.77,0,0,1,17.5,66.25ZM64,61.61A14.11,14.11,0,0,1,64.08,76a16.59,16.59,0,0,0-4.77-13.47L57.5,60.73v-10ZM55,36.25v30A13.77,13.77,0,0,1,41.25,80H37.5V32.43A39.85,39.85,0,0,0,52.85,29a13,13,0,0,1,2,5.35A9.7,9.7,0,0,1,55,36.25Z"/><path class="cls-1" d="M51.25,65A1.25,1.25,0,0,0,50,66.25c0,8.6-8.4,8.75-8.75,8.75a1.25,1.25,0,0,0,0,2.5c3.89,0,11.25-2.35,11.25-11.25A1.25,1.25,0,0,0,51.25,65Z"/><path class="cls-1" d="M31.25,75c-.35,0-8.75-.15-8.75-8.75a1.25,1.25,0,0,0-2.5,0c0,8.9,7.36,11.25,11.25,11.25a1.25,1.25,0,0,0,0-2.5Z"/></g></g></svg>