<svg xmlns="http://www.w3.org/2000/svg" viewBox="0 0 88.72 102.49"><defs><style>.cls-1{fill:#414042;}</style></defs><title>Asset 5</title><g id="Layer_2" data-name="Layer 2"><g id="Layer_2-2" data-name="Layer 2"><path class="cls-1" d="M14.1,67.19a1.25,1.25,0,0,0,.89-.37,1.27,1.27,0,0,0,0-1.77C2,52.05-2,15.79,8.41,5.37c2.8-2.81,6.5-3.56,11-2.25C24.71,4.67,31,9,38.07,16.05v3.63c0,.06-1.37.73-1.52.84a9.09,9.09,0,0,0-3.41,4.38,9,9,0,0,0,1,7.82l.3.44L20.76,29.75,25.37,15.9a1.25,1.25,0,0,0-.62-1.51l-10.09-5a1.25,1.25,0,1,0-1.12,2.23l9.12,4.56L18,30.24a1.25,1.25,0,0,0,.09,1,1.28,1.28,0,0,0,.79.61l16.9,4.22L28.67,39.6l-10.08,5a1.22,1.22,0,0,0-.56.56L13,55.29A1.27,1.27,0,0,0,13.54,57a1.26,1.26,0,0,0,1.68-.56l4.86-9.71,7.9-4V65.17l-9.39,4.69a1.25,1.25,0,0,0-.66,1.42L22.86,91,18,100.68a1.25,1.25,0,1,0,2.23,1.12l5-10.09a1.27,1.27,0,0,0,.09-.86l-4.8-19.2L28,68V79.37c0,3.17,1.34,6.19,2.71,9a7.17,7.17,0,0,0,6.52,4,7.88,7.88,0,0,0,3.27-.73,8.21,8.21,0,0,1,7.76,0,7.07,7.07,0,0,0,9.41-3.22l.4-.82c1.32-2.68,2.69-5.45,2.69-8.27V68l7.38,3.69-4.8,19.2a1.22,1.22,0,0,0,.1.86l5,10.09a1.25,1.25,0,0,0,1.12.69,1.23,1.23,0,0,0,.55-.13,1.25,1.25,0,0,0,.56-1.68L65.86,91l4.93-19.73a1.25,1.25,0,0,0-.66-1.42l-9.39-4.69V42.75l7.9,4,4.86,9.71a1.25,1.25,0,0,0,2.24-1.12l-5-10.08a1.17,1.17,0,0,0-.56-.56l-10.08-5L53,36.07l16.89-4.22a1.28,1.28,0,0,0,.79-.61,1.25,1.25,0,0,0,.09-1l-4.7-14.1,9.12-4.56a1.25,1.25,0,1,0-1.12-2.23L64,14.39a1.24,1.24,0,0,0-.63,1.51L68,29.75,54.33,33.16a14.28,14.28,0,0,0,.89-1.49A9,9,0,0,0,56,26.41a8.94,8.94,0,0,0-5.33-6.72V16.05C57.73,9,64,4.67,69.31,3.12c4.5-1.31,8.2-.56,11,2.25,10.43,10.42,6.43,46.68-6.57,59.68a1.25,1.25,0,0,0,0,1.77,1.23,1.23,0,0,0,1.76,0c14-14,18-51.84,6.58-63.22C78.63.15,74-.84,68.61.72S56.85,6.63,49.86,13.37a6.3,6.3,0,0,0-11,0C31.88,6.63,25.56,2.31,20.11.72S10.09.15,6.64,3.6C-4.74,15-.81,52.8,13.22,66.82A1.21,1.21,0,0,0,14.1,67.19ZM52.27,24a6.24,6.24,0,0,1,.85,1.54,16.51,16.51,0,0,1-2.6-.42,29.2,29.2,0,0,0-6.16-.82,29.29,29.29,0,0,0-6.16.82,15,15,0,0,1-2.6.43A6.5,6.5,0,0,1,36.47,24c1.42-1.22,4.32-2.22,7.89-2.22S50.87,22.81,52.27,24ZM39.7,34.43,38,33.31A6.27,6.27,0,0,1,35.2,28a12.2,12.2,0,0,0,3.52-.41,26.87,26.87,0,0,1,5.64-.77,26.87,26.87,0,0,1,5.64.77,16.43,16.43,0,0,0,3.08.47,3.25,3.25,0,0,0,.45-.06,6.3,6.3,0,0,1-2.83,5.29L49,34.43Zm-.27,55a4.85,4.85,0,0,1-6.49-2.12c-1.25-2.56-2.46-5.28-2.46-7.92V41.5l9.13-4.57h3.5V88.36A12.7,12.7,0,0,0,39.43,89.41Zm16-2a4.56,4.56,0,0,1-6.11,2,12.7,12.7,0,0,0-3.68-1V36.93h3.5l9.13,4.57V79.37C58.24,81.61,56.55,84.94,55.4,87.36Zm-11-74.7a3.8,3.8,0,0,1,3.78,2.95.12.12,0,0,1,0,.05v4a20.13,20.13,0,0,0-7.58,0V15.61A3.81,3.81,0,0,1,44.36,12.66Z"/><path class="cls-1" d="M40.39,40.09a1.24,1.24,0,0,0-1.71-.44l-5,3A1.25,1.25,0,0,0,33,43.72V76.5a1.25,1.25,0,0,0,2.5,0V44.43L40,41.8A1.24,1.24,0,0,0,40.39,40.09Z"/><path class="cls-1" d="M50,39.65a1.25,1.25,0,0,0-1.27,2.15l4.43,2.63V76.5a1.25,1.25,0,0,0,2.5,0V43.72a1.26,1.26,0,0,0-.62-1.08Z"/></g></g></svg>