<svg xmlns="http://www.w3.org/2000/svg" viewBox="0 0 99.13 102.5"><defs><style>.cls-1{fill:#414042;}</style></defs><title>Asset 11</title><g id="Layer_2" data-name="Layer 2"><g id="Layer_2-2" data-name="Layer 2"><path class="cls-1" d="M3.68,97.13a8.86,8.86,0,0,0,6.5,2.35c6.14,0,14.26-4,21-9.51l2,5.94-4.45,4.46a1.24,1.24,0,0,0,0,1.76,1.21,1.21,0,0,0,.88.37,1.25,1.25,0,0,0,.89-.37l5-5a1.26,1.26,0,0,0,.3-1.28L33.2,88.2a41.18,41.18,0,0,0,8.19-10c2.46,2.74,5.24,4.25,8.17,4.25s5.71-1.51,8.18-4.25a41.18,41.18,0,0,0,8.19,10l-2.55,7.65a1.24,1.24,0,0,0,.3,1.28l5,5a1.21,1.21,0,0,0,.88.37,1.25,1.25,0,0,0,.89-2.13L66,95.91,68,90c6.72,5.53,14.84,9.51,21,9.51a8.86,8.86,0,0,0,6.5-2.35,12.88,12.88,0,0,0,3.68-9.5c0-17.89-27-45.62-32.6-51.18a14.46,14.46,0,0,1-2.1-4.91c-.11-.4-.22-.78-.32-1.08V30.4l6-3a1.28,1.28,0,0,0,.63-.72l5-15a1.25,1.25,0,1,0-2.37-.8L68.54,25.37l-5,2.51a13.27,13.27,0,0,1-.15-3.12A9.79,9.79,0,0,1,64,22l.15-.45a9.81,9.81,0,0,0-.28-6.88,9.32,9.32,0,0,0-2-2.94l-5.4-5.4c-.17-.16-.34-.28-.52-.42a3.72,3.72,0,0,1,3.68-3.4,1.25,1.25,0,0,0,0-2.5,6.17,6.17,0,0,0-5.88,4.45,9.64,9.64,0,0,0-8.23,0A6.18,6.18,0,0,0,39.56,0a1.25,1.25,0,0,0,0,2.5,3.71,3.71,0,0,1,3.68,3.4c-.19.14-.33.26-.51.42l-5.4,5.4a9.4,9.4,0,0,0-2,2.93A9.73,9.73,0,0,0,35,21.54l.15.47a9.87,9.87,0,0,1,.54,2.8,14,14,0,0,1-.15,3.07l-5-2.51L25.75,10.85a1.25,1.25,0,1,0-2.37.8l5,15a1.26,1.26,0,0,0,.62.72l6,3v0a39.78,39.78,0,0,1-2.48,6.09C26.83,42.19,0,69.79,0,87.63A12.84,12.84,0,0,0,3.68,97.13ZM30.94,86.91C21.17,95.54,9.5,99.41,5.45,95.37A10.32,10.32,0,0,1,2.5,87.64c0-16.45,25.8-43.31,31.24-48.8,5.16,2.24,9,3.45,14.57,3.56v3.19c-2.29,1.59-10.48,7.59-11,12.74a4.56,4.56,0,0,0,1.36,3.8c3.45,3.45,3.9,8,1.35,13.43A37.45,37.45,0,0,1,30.94,86.91Zm6.47-55.77.32-1.09a17.31,17.31,0,0,0,.48-4.57,24.21,24.21,0,0,1,22.71,0,17.33,17.33,0,0,0,.49,4.62L62,32.22a19.46,19.46,0,0,0,1.75,4.58A28.29,28.29,0,0,1,50.33,40a37.86,37.86,0,0,1-9.72-1.09,20,20,0,0,1-5.39-2.15A43.73,43.73,0,0,0,37.41,31.14ZM49.56,80c-3,0-5.38-2.13-7-4.13,2.6-6.1,1.89-11.46-2.15-15.5a2.08,2.08,0,0,1-.64-1.79c.34-3.53,6.63-8.61,9.75-10.8C52.69,50,59,55.05,59.32,58.58a2.08,2.08,0,0,1-.64,1.79c-4,4-4.76,9.4-2.15,15.5C54.94,77.87,52.58,80,49.56,80ZM93.68,95.37c-4.06,4-15.72.17-25.49-8.46h0A37.38,37.38,0,0,1,59.1,75.57h0c-2.56-5.46-2.1-10,1.35-13.44a4.59,4.59,0,0,0,1.36-3.8c-.51-5.15-8.7-11.15-11-12.74V42.41c5.71-.38,10.25-1.27,14.52-3.62,5.2,5.23,31.26,32.29,31.3,48.85A10.36,10.36,0,0,1,93.68,95.37ZM60.89,14.74a3.7,3.7,0,0,1-1.33.26,3.76,3.76,0,0,1-3.75-3.75,3.67,3.67,0,0,1,.39-1.6L60,13.48A6.86,6.86,0,0,1,60.89,14.74ZM54.4,7.93a6.11,6.11,0,0,0-1.09,3.32,6.26,6.26,0,0,0,6.25,6.25A6.06,6.06,0,0,0,61.83,17a7.26,7.26,0,0,1-.1,3.73l-.15.42a14,14,0,0,0-.33,1.69,26.72,26.72,0,0,0-23.38,0,12.5,12.5,0,0,0-.32-1.66l-.15-.45A7.16,7.16,0,0,1,37.3,17a6,6,0,0,0,2.26.47,6.25,6.25,0,0,0,6.25-6.25,6.19,6.19,0,0,0-1.08-3.32A7.11,7.11,0,0,1,54.4,7.93ZM42.93,9.65a3.8,3.8,0,0,1,.38,1.6A3.75,3.75,0,0,1,39.56,15a3.55,3.55,0,0,1-1.33-.27,7.21,7.21,0,0,1,.87-1.25Z"/></g></g></svg>