<svg xmlns="http://www.w3.org/2000/svg" viewBox="0 0 62.5 102.5"><defs><style>.cls-1{fill:#414042;}</style></defs><title>Asset 14</title><g id="Layer_2" data-name="Layer 2"><g id="Layer_2-2" data-name="Layer 2"><path class="cls-1" d="M.13,66.81l5,10a1.25,1.25,0,0,0,2.24-1.12L2.93,66.81,10,63.27v8.18A20.88,20.88,0,0,0,14.08,83.8l-4,12a1.26,1.26,0,0,0,.63,1.52l10,5a1.25,1.25,0,1,0,1.12-2.24l-9-4.51L16,86.07A21,21,0,0,0,31.05,92.5h.4a21,21,0,0,0,15.09-6.43l3.18,9.55-9,4.51a1.25,1.25,0,0,0,1.12,2.24l10-5a1.26,1.26,0,0,0,.63-1.52l-4-12A20.88,20.88,0,0,0,52.5,71.45V63.27l7.07,3.54-4.44,8.88a1.25,1.25,0,0,0,2.24,1.12l5-10a1.25,1.25,0,0,0-.56-1.68l-9.39-4.69a16.18,16.18,0,0,0-4.74-10.72C61.76,42.26,62.75,31.61,61,24.1V24s0,0,0,0,0-.19,0-.26C58.07,11.41,47.58.81,47.13.37a1.24,1.24,0,0,0-1.76,1.76C45.47,2.24,55.8,12.68,58.5,24c0,0,0,.05,0,.08h0c0,8.36-6.22,12.51-12.1,14.59l1.09-7.24a1.26,1.26,0,0,0-1.8-1.31l-8.08,4a.89.89,0,0,1-1.19-.38l-2.14-4.22A3.21,3.21,0,0,0,32.5,28V16.25a1.25,1.25,0,0,0-2.5,0V28a3.18,3.18,0,0,0-1.77,1.53l-2.16,4.27a.88.88,0,0,1-1.16.37l-8.1-4.05A1.26,1.26,0,0,0,15,31.44l1.09,7.24C10.23,36.61,4.07,32.47,4,24.16c2.78-11.55,13-21.92,13.12-22A1.24,1.24,0,1,0,15.37.37c-.45.44-10.94,11-13.84,23.45C-.25,31.6.74,42.26,14.82,49.72a16.18,16.18,0,0,0-4.74,10.72L.69,65.13A1.25,1.25,0,0,0,.13,66.81ZM31.05,90a18.52,18.52,0,0,1-4.85-.72,19.62,19.62,0,0,0,5.06-6.87,19.58,19.58,0,0,0,5.07,6.86,18.34,18.34,0,0,1-4.88.73ZM19.78,46.36l-.31-2a13.88,13.88,0,0,1,6.78-1.82h10A13.88,13.88,0,0,1,43,44.32l-.31,2A16.05,16.05,0,0,0,36.25,45h-10A16.05,16.05,0,0,0,19.78,46.36ZM50,61.25v10.2A18.56,18.56,0,0,1,39.08,88.32c-2.71-2.12-6.58-6.17-6.58-12.07V47.5h3.75A13.77,13.77,0,0,1,50,61.25ZM59,32c-.85,6.66-5.35,12-13.4,16-.17-.13-.35-.24-.52-.36L46,41.44C50.22,40.12,56,37.38,59,32ZM23.81,36.43a3.38,3.38,0,0,0,4.51-1.52l2.16-4.28a.85.85,0,0,1,1.55,0l2.14,4.23a3.38,3.38,0,0,0,4.54,1.53l5.95-3L43.42,41.7A16.26,16.26,0,0,0,36.25,40h-10a16.26,16.26,0,0,0-7.17,1.7l-1.24-8.26ZM3.53,32c3,5.41,8.76,8.14,13,9.46l.92,6.19c-.17.12-.35.23-.52.36C8.9,44,4.4,38.65,3.53,32Zm9,29.27A13.77,13.77,0,0,1,26.25,47.5H30V76.25c0,5.61-3.43,9.6-6.55,12.08A18.55,18.55,0,0,1,12.5,71.45Z"/><path class="cls-1" d="M27.5,52.5a1.25,1.25,0,0,0,0-2.5A12.52,12.52,0,0,0,15,62.5a1.25,1.25,0,0,0,2.5,0A10,10,0,0,1,27.5,52.5Z"/><path class="cls-1" d="M35,50a1.25,1.25,0,0,0,0,2.5,10,10,0,0,1,10,10,1.25,1.25,0,0,0,2.5,0A12.52,12.52,0,0,0,35,50Z"/></g></g></svg>