<svg xmlns="http://www.w3.org/2000/svg" viewBox="0 0 102.5 102.47"><defs><style>.cls-1{fill:#414042;}</style></defs><title>Asset 2</title><g id="Layer_2" data-name="Layer 2"><g id="Layer_2-2" data-name="Layer 2"><path class="cls-1" d="M51.25,29.69c3.28,0,6.17-1.38,8.5-2.49.8-.38,1.53-.73,2.18-1a1.25,1.25,0,0,0-.85-2.36c-.72.26-1.52.64-2.41,1.07-2.1,1-4.7,2.24-7.42,2.24S45.93,25.94,43.83,25c-.89-.43-1.69-.81-2.41-1.07a1.25,1.25,0,0,0-.85,2.36c.65.23,1.38.58,2.18,1C45.08,28.31,48,29.69,51.25,29.69Z"/><path class="cls-1" d="M101.25,55.79H96.8L82.18,39.62a1.25,1.25,0,0,0-1.36-.33l-8.37,3.09s-2.84-2.25-3.16-2.48a29.89,29.89,0,0,0-4.64-2.79l11.7-.93a1.24,1.24,0,0,0,1-.6l9.77-16.2L101.68,14a1.25,1.25,0,1,0-.86-2.34l-15,5.52a1.28,1.28,0,0,0-.64.53l-9.67,16L63,34.74A18.68,18.68,0,0,0,67.5,22.45c0-2.56-.48-4-1.57-4.81a3.18,3.18,0,0,0-2.44-.43,17.77,17.77,0,0,0-1.58-3.92A39.21,39.21,0,0,0,82.2,2.06,1.25,1.25,0,1,0,80.3.44,37.1,37.1,0,0,1,60.49,11.06c-2.47-3.16-5.77-5-9.24-5s-6.76,1.85-9.24,5A37.29,37.29,0,0,1,22.2.44,1.26,1.26,0,0,0,20.44.3a1.24,1.24,0,0,0-.14,1.76A39.21,39.21,0,0,0,40.58,13.29,18.37,18.37,0,0,0,39,17.2a3.19,3.19,0,0,0-2.44.44c-1.09.77-1.57,2.25-1.57,4.81a18.68,18.68,0,0,0,4.55,12.29L27,33.74l-9.67-16a1.28,1.28,0,0,0-.64-.53l-15-5.52A1.25,1.25,0,1,0,.82,14l14.59,5.38,9.77,16.2a1.24,1.24,0,0,0,1,.6l11.6.92a35.73,35.73,0,0,0-4,2.33A34.18,34.18,0,0,0,30,42.36l-8.33-3.07a1.26,1.26,0,0,0-1.36.33L5.7,55.79H1.25a1.25,1.25,0,0,0,0,2.5h5a1.27,1.27,0,0,0,.93-.41l14.43-16L28,44.27c-5,5.19-7.84,11.56-7.94,18L10.28,83.78.64,89.11a1.25,1.25,0,1,0,1.22,2.18l10-5.52a1.29,1.29,0,0,0,.53-.58l8.09-17.88A49.06,49.06,0,0,0,31.21,89.76c5,6.07,12,12.92,20.42,12.71,5.15-.14,9.83-3.06,13.7-6.46A52.68,52.68,0,0,0,80.49,73.23,38,38,0,0,0,82,67.31l8.09,17.88a1.29,1.29,0,0,0,.53.58l10,5.52a1.26,1.26,0,0,0,.61.16,1.25,1.25,0,0,0,.61-2.34l-9.64-5.33L82.48,62.26c-.1-6.83-3.28-13.07-8-18l6.42-2.36,14.43,16a1.27,1.27,0,0,0,.93.41h5a1.25,1.25,0,0,0,0-2.5ZM78.44,71.26a83.21,83.21,0,0,0-27.19-4.41,83.21,83.21,0,0,0-27.19,4.41,30.58,30.58,0,0,1-1.47-7.84,78,78,0,0,1,28.66-5.13,78,78,0,0,1,28.66,5.13A30.66,30.66,0,0,1,78.44,71.26ZM74.21,81a84.32,84.32,0,0,0-23-3,84.38,84.38,0,0,0-23,3,30.28,30.28,0,0,1-3.43-7.37,80.77,80.77,0,0,1,26.39-4.23,80.58,80.58,0,0,1,26.41,4.24A35.59,35.59,0,0,1,74.21,81Zm-6.73,9.51a90.33,90.33,0,0,0-32.46,0,44.56,44.56,0,0,1-5.4-7.31A82.2,82.2,0,0,1,51.25,80.4a82.15,82.15,0,0,1,21.63,2.75A42.28,42.28,0,0,1,67.48,90.46ZM34.25,42.17A21.89,21.89,0,0,1,40,56.57a75.69,75.69,0,0,0-17.32,4.19C23.27,53.81,27.48,47,34.25,42.17ZM52.62,55.85a27.54,27.54,0,0,1,7.47-18,32.73,32.73,0,0,1,6.1,2.91,24.4,24.4,0,0,0-6.11,15.48C57.63,56,55.14,55.89,52.62,55.85Zm-1.37-7.54a29.6,29.6,0,0,0-6.11-11.24,25,25,0,0,1,6.11-.88A25.39,25.39,0,0,1,57.4,37,29.68,29.68,0,0,0,51.25,48.31Zm-1.37,7.54c-2.52,0-5,.15-7.46.39A24.35,24.35,0,0,0,36.35,40.8a32,32,0,0,1,6.07-2.94A27.53,27.53,0,0,1,49.88,55.85Zm12.67.72a21.84,21.84,0,0,1,5.72-14.43c6.22,4.48,10.94,11.11,11.61,18.62A75.65,75.65,0,0,0,62.55,56.57Zm-20.37-41a5.91,5.91,0,0,0,4.07,1.71,6.09,6.09,0,0,0,5-2.75,6.09,6.09,0,0,0,5,2.75,5.91,5.91,0,0,0,4.07-1.71A15.62,15.62,0,0,1,61.13,18c-.51.22-1,.41-1.56.69-2.35,1.11-5.27,2.51-8.32,2.51s-6-1.4-8.32-2.51c-.57-.28-1-.47-1.56-.69A15.62,15.62,0,0,1,42.18,15.58ZM59,13.15l.06.1a3.49,3.49,0,0,1-2.82,1.54,4,4,0,0,1-3.75-4.28,4.66,4.66,0,0,1,.37-1.72A10.24,10.24,0,0,1,59,13.15ZM49.63,8.79A4.66,4.66,0,0,1,50,10.51a4,4,0,0,1-3.75,4.28,3.48,3.48,0,0,1-2.82-1.55.56.56,0,0,0,0-.08A10.24,10.24,0,0,1,49.63,8.79ZM37.5,22.45c0-2.34.47-2.74.52-2.78s.34-.17,1.41.19c.72.27,1.53.66,2.43,1.08,2.57,1.23,5.77,2.76,9.39,2.76s6.82-1.53,9.39-2.76c.9-.42,1.71-.81,2.41-1.07,1.1-.37,1.38-.23,1.43-.2s.52.44.52,2.78a15.86,15.86,0,0,1-5.84,12.47,27.53,27.53,0,0,0-7.91-1.23,28.08,28.08,0,0,0-7.9,1.24A15.87,15.87,0,0,1,37.5,22.45Zm10.65,77c-4.28-.91-7.78-3.6-11-6.71a1.36,1.36,0,0,0-.12-.12,88,88,0,0,1,28.42,0l-.12.12c-3.88,3.76-8.12,6.94-13.79,7A15,15,0,0,1,48.15,99.44Z"/></g></g></svg>