<svg xmlns="http://www.w3.org/2000/svg" viewBox="0 0 82.5 102.5"><defs><style>.cls-1{fill:#414042;}</style></defs><title>Asset 19</title><g id="Layer_2" data-name="Layer 2"><g id="Layer_2-2" data-name="Layer 2"><path class="cls-1" d="M70.06,61.65a1.31,1.31,0,0,0,.63.72l10,5a1.25,1.25,0,1,0,1.12-2.24l-9.54-4.77L67.44,45.85a1.27,1.27,0,0,0-1.75-.72L60.55,47.7a16.91,16.91,0,0,0-2.32-1.77A14.9,14.9,0,0,0,60.93,41l10.72-3.58a1.27,1.27,0,0,0,.79-1.59l-5-15a1.26,1.26,0,1,0-2.38.8l4.61,13.81-8.11,2.71a15.19,15.19,0,0,0-4.33-12.7l-.1-.1a1.51,1.51,0,0,0-1.43-.26c-.44.15-.9.26-1.36.39a23,23,0,0,0-.26-10.07A16.06,16.06,0,0,0,62.5,1.25a1.25,1.25,0,0,0-2.5,0,13.51,13.51,0,0,1-6.76,11.68c-.28-.74-.51-1.5-.87-2.23a1.25,1.25,0,0,0-2-.33l-2.5,2.5a2.32,2.32,0,0,1-3.24,0,4.85,4.85,0,0,0-6.76,0,2.32,2.32,0,0,1-3.24,0l-2.5-2.5a1.19,1.19,0,0,0-1.1-.3,1.34,1.34,0,0,0-1,.72c-.34.69-.55,1.42-.83,2.14A13.52,13.52,0,0,1,22.5,1.25a1.25,1.25,0,0,0-2.5,0,16,16,0,0,0,8.41,14.17,23.15,23.15,0,0,0-.26,10.08c-.5-.15-1-.27-1.52-.44a1.49,1.49,0,0,0-1.37.41A15.19,15.19,0,0,0,21,38.18l-8.12-2.72,4.61-13.81a1.27,1.27,0,0,0-.79-1.59,1.28,1.28,0,0,0-1.59.79l-5,15a1.27,1.27,0,0,0,.79,1.59L21.6,41a15.5,15.5,0,0,0,2.67,4.89,17,17,0,0,0-2.33,1.77l-5.13-2.56a1.27,1.27,0,0,0-1.75.72L10.23,60.36.69,65.13a1.25,1.25,0,0,0,1.12,2.24l10-5a1.31,1.31,0,0,0,.63-.72L17,48l3.15,1.58a16.87,16.87,0,0,0-3.75,12.8l1.17,9.37c.05.34.16.65.22,1l-6.92,2.32a1.22,1.22,0,0,0-.78.77,1.26,1.26,0,0,0,.14,1.1l9.43,14.15-9.27,9.28a1.24,1.24,0,0,0,0,1.76,1.23,1.23,0,0,0,1.76,0l10-10a1.23,1.23,0,0,0,.16-1.57L13.2,76.92l5.11-1.72A23.68,23.68,0,0,0,41.05,92.5h.41A23.7,23.7,0,0,0,64.19,75.2l5.11,1.72L60.21,90.56a1.23,1.23,0,0,0,.16,1.57l10,10a1.23,1.23,0,0,0,1.76,0,1.24,1.24,0,0,0,0-1.76l-9.27-9.28,9.43-14.15a1.26,1.26,0,0,0,.14-1.1,1.22,1.22,0,0,0-.78-.77l-6.92-2.32c.06-.34.17-.65.22-1l1.17-9.37a16.87,16.87,0,0,0-3.76-12.8L65.52,48ZM31.65,13.42l1.22,1.21a4.72,4.72,0,0,0,6.76,0,2.32,2.32,0,0,1,3.24,0,4.85,4.85,0,0,0,6.76,0l1.23-1.22a20.67,20.67,0,0,1,.82,12.82,46.07,46.07,0,0,1-20.86,0A20.64,20.64,0,0,1,31.65,13.42Zm-5,14.26c13,2.94,16.48,2.88,29.28,0a12.78,12.78,0,0,1-.36,17.49L41.25,49.93,27,45.17A12.8,12.8,0,0,1,26.61,27.68ZM20,71.45l-1.17-9.37a14.43,14.43,0,0,1,7.53-14.46L40,52.15l.19,37.77A21.19,21.19,0,0,1,20,71.45Zm43.61-9.37-1.17,9.37A21.18,21.18,0,0,1,42.69,89.88L42.5,52.15l13.62-4.54A14.41,14.41,0,0,1,63.64,62.08Z"/></g></g></svg>