<svg xmlns="http://www.w3.org/2000/svg" viewBox="0 0 61.94 102.5"><defs><style>.cls-1{fill:#414042;}</style></defs><title>Asset 9</title><g id="Layer_2" data-name="Layer 2"><g id="Layer_2-2" data-name="Layer 2"><path class="cls-1" d="M15.84,44.77c-1.79,1-2.61,3.73-2.76,9L9.63,50.37a1.24,1.24,0,0,0-1.3-.3,1.27,1.27,0,0,0-.83,1.06L6,67.09.22,75.55a1.24,1.24,0,0,0,.33,1.73,1.21,1.21,0,0,0,.7.22,1.23,1.23,0,0,0,1-.55l6-8.72a1.2,1.2,0,0,0,.21-.58L9.74,54l3.36,3.36a61.54,61.54,0,0,0,3.54,19.88l-2.05-.48a1.23,1.23,0,0,0-1.48.84L7.65,95l-5.34,5.34a1.24,1.24,0,0,0,0,1.76,1.21,1.21,0,0,0,.88.37,1.25,1.25,0,0,0,.89-.37l5.55-5.55a1.17,1.17,0,0,0,.31-.51l5.21-16.6,2.68.63c3.25,7,7.89,11.29,13.14,11.29s9.89-4.32,13.14-11.29l2.68-.63L52,96.07a1.28,1.28,0,0,0,.31.51l5.56,5.55a1.23,1.23,0,0,0,1.76,0,1.24,1.24,0,0,0,0-1.76L54.29,95,48.83,77.61a1.24,1.24,0,0,0-1.48-.84l-2.05.48a61.27,61.27,0,0,0,3.54-19.88L52.2,54l1.3,13.64a1.32,1.32,0,0,0,.22.58L59.66,77a1.25,1.25,0,0,0,2.07-1.4L56,67.09l-1.52-16a1.28,1.28,0,0,0-.82-1.06,1.25,1.25,0,0,0-1.31.3l-3.45,3.45c-.14-5.32-1-8-2.76-9A3.81,3.81,0,0,0,43,44.56a31.46,31.46,0,0,0,.27-3.17h4.38a1.28,1.28,0,0,0,1-.48L59.74,26.67a1.25,1.25,0,0,0-2-1.54L47,38.89H43.28c-.13-2.43-.63-3.76-1.68-4.31a2.6,2.6,0,0,0-2.32.05c2.55-10,7.35-22.14.54-31.58A11.88,11.88,0,0,0,37.09.21a1.25,1.25,0,0,0-1.4,2.08A13.2,13.2,0,0,1,40,9.2a10.12,10.12,0,0,0-3.2-2,1.26,1.26,0,0,0-1.6.75A1.25,1.25,0,0,0,36,9.54a7.87,7.87,0,0,1,4.57,5.25,9.67,9.67,0,0,0-3.85-2,1.22,1.22,0,0,0-1.5.92,1.24,1.24,0,0,0,.92,1.51s4.39,1.1,4.27,4.64c-.11.67-.24,1.35-.41,2.06a2.53,2.53,0,0,0-1.67.15L35,23.69l-1.74-3.47a2.65,2.65,0,0,0-4.55,0l-1.76,3.5-3.29-1.67A2.46,2.46,0,0,0,21.85,22c-.16-.72-.3-1.41-.41-2.08-.14-3.52,4.09-4.62,4.27-4.66a1.26,1.26,0,0,0,.92-1.51,1.23,1.23,0,0,0-1.51-.92,9.64,9.64,0,0,0-3.84,2,7.87,7.87,0,0,1,4.56-5.25A1.25,1.25,0,1,0,25,7.19a10.14,10.14,0,0,0-3.25,2,13,13,0,0,1,4.38-7A1.24,1.24,0,0,0,26.45.55,1.25,1.25,0,0,0,24.72.21c-5.23,3.59-6.54,11.2-6.1,17s2.54,11.74,4,17.39a2.57,2.57,0,0,0-2.32-.05c-1.05.55-1.55,1.88-1.67,4.31H14.91L4.18,25.13a1.25,1.25,0,0,0-2,1.54L13.32,40.91a1.25,1.25,0,0,0,1,.48h4.38A28.74,28.74,0,0,0,19,44.56,3.83,3.83,0,0,0,15.84,44.77Zm-.29,10.79c0-6.72,1-8.27,1.56-8.63,1.08-.68,3.05.81,4.63,1.7a22.06,22.06,0,0,0,8,3.09v37C21.92,87.32,15.55,72.72,15.55,55.56Zm29.29-8.63c.58.34,1.55,1.91,1.55,8.63,0,17.16-6.37,31.76-14.17,33.19v-37a22.06,22.06,0,0,0,8-3.09C42.09,47.56,44.05,46.46,44.84,46.93ZM25.84,26a2.56,2.56,0,0,0,3.36-1.19L31,21.36l1.72,3.45A2.57,2.57,0,0,0,36.15,26l3.33-1.66L36.16,36.6c-1.46,1-3.33,2.29-5.19,2.29s-3.54-1.12-5.17-2.24L22.52,24.31ZM21.11,40.14c0-2.66.22-3.08.29-3.3A17.16,17.16,0,0,1,24,38.48c1.89,1.3,4.24,2.91,6.94,2.91s5.05-1.62,6.9-2.94c0,0,2.31-1.61,2.52-1.69.14.3.44.57.44,3.38a25.65,25.65,0,0,1-.59,5.62L39,46.45c-2.42,1.37-5.17,2.92-8,2.92s-5.57-1.55-8-2.92l-1.27-.69A26.27,26.27,0,0,1,21.11,40.14Z"/></g></g></svg>