<svg xmlns="http://www.w3.org/2000/svg" viewBox="0 0 102.5 78.64"><defs><style>.cls-1{fill:#414042;}</style></defs><title>Asset 3</title><g id="Layer_2" data-name="Layer 2"><g id="Layer_2-2" data-name="Layer 2"><path class="cls-1" d="M99.74,0c-6.9,0-34.2,17.66-45.13,33.14l0-.15a3.34,3.34,0,0,0-2-2.37c.54-10.86,4-17.34,9.41-17.34a1.25,1.25,0,0,0,0-2.5c-5.19,0-9,4.19-10.78,11.51C49.43,15,45.66,10.78,40.47,10.78a1.25,1.25,0,0,0,0,2.5c5.41,0,8.88,6.48,9.41,17.34a3.3,3.3,0,0,0-2,2.38l0,.14C37,17.66,9.66,0,2.76,0A2.58,2.58,0,0,0,.43,1.13C-.73,2.93.57,6,3,11.14c1.85,4,3.94,8.53,3.94,11.66a36.67,36.67,0,0,1-.56,4.71c-.79,5.13-1.7,11,1.19,13.06,1.52,1.12,3.67,1,6.57-.49a12.25,12.25,0,0,1,3-.94,20.42,20.42,0,0,0-10,10C4.3,54.64,5.4,60,10.28,65.25c3.74,4,9.74,8,18.86,12.55a7.76,7.76,0,0,0,3.49.84,8.42,8.42,0,0,0,3-.58c4.31-1.64,8.24-6.63,11.21-11.5l1.07,5.32a3.4,3.4,0,0,0,6.65,0l1.06-5.3c3,4.87,6.9,9.86,11.22,11.5a8.42,8.42,0,0,0,3,.58,7.75,7.75,0,0,0,3.48-.84c9.12-4.56,15.12-8.55,18.87-12.55,4.88-5.21,6-10.61,3.24-16.07a20.41,20.41,0,0,0-10-10,12.53,12.53,0,0,1,3,.94c2.89,1.45,5,1.6,6.56.49,2.89-2.11,2-7.93,1.19-13.06a38.56,38.56,0,0,1-.56-4.71c0-3.13,2.09-7.66,3.94-11.66,2.39-5.19,3.69-8.21,2.54-10A2.61,2.61,0,0,0,99.74,0ZM50.37,33.52a.9.9,0,0,1,1.76,0l.56,2.65a27.46,27.46,0,0,0-1.44,3,24.58,24.58,0,0,0-1.43-2.93ZM13,37.85c-1.9.94-3.31,1.19-4,.7-1.67-1.21-.78-6.89-.2-10.66A36.84,36.84,0,0,0,9.4,22.8c0-3.68-2.21-8.48-4.17-12.71C4,7.4,2.12,3.34,2.47,2.54a.72.72,0,0,1,.29,0C9.3,2.5,41,23.17,48.41,38.55,39.66,28.7,17.7,18,16.64,17.51a1.25,1.25,0,0,0-1.09,2.26c.27.13,25.3,12.29,32.24,22l-1.93-.65A90.05,90.05,0,0,0,29.23,37C24,36.25,17.86,35.41,13,37.85ZM34.76,75.73a5.34,5.34,0,0,1-4.5-.17c-18.86-9.42-25.13-17-21-25.26C11.93,45,16.38,39.75,26.86,39.75a44.94,44.94,0,0,1,9.6,1.19c3.88,1,7.44,2.12,10,3,1,.37,2,.68,3.07,1.1l.44.16v9.67a82.26,82.26,0,0,1-3.6,7.47s0,0,0,0C43.5,67.67,39.27,74,34.76,75.73Zm17.37-4.38a.9.9,0,0,1-1.76,0l-1.62-8.09c1-1.92,1.88-3.67,2.5-5,.62,1.35,1.47,3.1,2.51,5Zm41.11-21c4.14,8.28-2.14,15.84-21,25.26a5.32,5.32,0,0,1-4.49.17C63.24,74,59,67.67,56.12,62.39c0,0,0,0,0,0-1.93-3.56-3.26-6.64-3.6-7.47V45.21A136.62,136.62,0,0,1,66.17,40.9C83.69,37.05,89.88,43.59,93.24,50.3Zm4-40.21c-2,4.23-4.17,9-4.17,12.71a38.47,38.47,0,0,0,.59,5.09c.58,3.77,1.47,9.45-.19,10.66-.67.49-2.08.24-4-.7-6.65-3.33-18.71-1-27.62,1.6q-2.47.69-5.13,1.59L54.11,42c6.72-9.71,32.11-22.05,32.38-22.18a1.25,1.25,0,0,0-1.09-2.26c-1,.5-21.51,10.48-30.78,20C62.84,22.28,93.34,2.47,99.74,2.47H100C100.38,3.34,98.51,7.4,97.27,10.09Z"/><path class="cls-1" d="M43.31,46.56c-8.21-3.37-15.28-3.81-21-1.32A17.91,17.91,0,0,0,13,54.52a1.26,1.26,0,0,0,.73,1.61,1.14,1.14,0,0,0,.44.08,1.25,1.25,0,0,0,1.17-.81,15.5,15.5,0,0,1,7.91-7.86c5.1-2.23,11.51-1.77,19.07,1.33A1.23,1.23,0,0,0,44,48.2,1.26,1.26,0,0,0,43.31,46.56Z"/><path class="cls-1" d="M58.74,46.56a1.25,1.25,0,0,0-.68,1.64,1.23,1.23,0,0,0,1.63.67c7.54-3.09,13.93-3.55,19-1.35a15.64,15.64,0,0,1,8,7.88,1.25,1.25,0,0,0,1.17.81,1.41,1.41,0,0,0,.44-.08A1.26,1.26,0,0,0,89,54.52a18,18,0,0,0-9.26-9.28C74,42.75,66.94,43.19,58.74,46.56Z"/></g></g></svg>