<svg xmlns="http://www.w3.org/2000/svg" viewBox="0 0 102.5 82.87"><defs><style>.cls-1{fill:#414042;}</style></defs><title>Asset 17</title><g id="Layer_2" data-name="Layer 2"><g id="Layer_2-2" data-name="Layer 2"><path class="cls-1" d="M0,26.54A4.07,4.07,0,0,0,2.84,30.6,66.58,66.58,0,0,0,23.3,34.06c.26,0,.5,0,.76,0C2.19,42.68,2.12,45.5,2.12,46.78a4.82,4.82,0,0,0,2,3.86C6.3,52.39,10.16,53,14,53a35.22,35.22,0,0,0,7.74-.85C32,49.78,41.27,42.93,47.37,33.33l.4,1.22-3,6.63a1.17,1.17,0,0,0-.08.76l1.09,5.25a1.24,1.24,0,0,0,1.22,1,1.06,1.06,0,0,0,.25,0,1.25,1.25,0,0,0,1-1.48l-1-4.85,2-4.46a3,3,0,0,0,.76.44V81.62a1.25,1.25,0,0,0,2.5,0V37.81a3,3,0,0,0,.76-.44l2,4.46-1,4.85a1.25,1.25,0,0,0,1,1.48,1.06,1.06,0,0,0,.25,0,1.24,1.24,0,0,0,1.22-1l1.09-5.25a1.17,1.17,0,0,0-.08-.76l-3-6.63.4-1.22c6.1,9.59,15.34,16.45,25.64,18.84a34.87,34.87,0,0,0,7.77.86c3.83,0,7.7-.64,9.93-2.4a4.8,4.8,0,0,0,2-3.85c0-1.37-.07-4.07-22.05-12.76.24,0,.46,0,.7,0A67.39,67.39,0,0,0,99.66,30.6a4.08,4.08,0,0,0,2.84-4.06,4.17,4.17,0,0,0-3.11-4,73.73,73.73,0,0,0-18.28-1.94h-25c-.09-.44-.17-.91-.25-1.38l7.25-4.14a1.25,1.25,0,0,0,.59-1.4l-2-8.06a1.22,1.22,0,0,0-1.52-.9,1.25,1.25,0,0,0-.91,1.52l1.81,7.14-5.62,3.21a15.76,15.76,0,0,1-.19-2A3.71,3.71,0,0,0,57.57,11V7.86a4.12,4.12,0,0,0-.8-2.5L53.59,1.19a2.9,2.9,0,0,0-4.68,0L45.73,5.35a4.18,4.18,0,0,0-.81,2.51V11a3.69,3.69,0,0,0,2.34,3.61,16.19,16.19,0,0,1-.19,2l-5.62-3.21,1.8-7.14a1.25,1.25,0,0,0-.9-1.52,1.22,1.22,0,0,0-1.52.9l-2,8.06a1.25,1.25,0,0,0,.59,1.4l7.25,4.14c-.08.46-.16.93-.25,1.38h-25A73.87,73.87,0,0,0,3.1,22.58,4.17,4.17,0,0,0,0,26.54Zm21.15,23.2C15.9,51,8.4,50.87,5.63,48.67a2.28,2.28,0,0,1-1-1.85C4.7,46.47,6.23,43.16,33.67,33l13.94-4.92-1,1.73h0l-.51.87C40.37,40.45,31.29,47.38,21.15,49.74Zm30.11-22.9,2.16,3.71L51.9,35.14a.7.7,0,0,1-1.3,0l-1.52-4.58Zm46.67,20a2.32,2.32,0,0,1-1,1.86c-2.78,2.2-10.3,2.33-15.58,1.07-10.13-2.36-19.21-9.29-24.93-19l-1.53-2.63L68.78,33C95.54,42.93,97.76,46.22,97.93,46.81ZM98.75,25A1.66,1.66,0,0,1,100,26.6a1.59,1.59,0,0,1-1.11,1.62q-15.56,5-29.2,2.47h0s-16.84-5.93-17.18-6V23.14H81.11A72,72,0,0,1,98.75,25ZM47.42,7.86a1.81,1.81,0,0,1,.29-1l3.2-4.18c.23-.31.44-.32.69,0l3.19,4.19a1.75,1.75,0,0,1,.28,1V11c0,.75-.4,1.21-.67,1.23a13.81,13.81,0,0,0-6.36,0c-.22,0-.62-.49-.62-1.23Zm1.82,11a23.56,23.56,0,0,0,.51-4.27,10.77,10.77,0,0,1,3,0,21.6,21.6,0,0,0,.5,4.21c.08.62.21,1.24.33,1.86H48.92C49,20,49.17,19.41,49.24,18.84Zm-27.85,4.3H50v1.51h0L33.13,30.58h0c-9,1.85-19,1.07-29.52-2.36A1.59,1.59,0,0,1,2.5,26.6,1.64,1.64,0,0,1,3.74,25,71.61,71.61,0,0,1,21.39,23.14Z"/><path class="cls-1" d="M16.41,28.12H31.34a1.25,1.25,0,1,0,0-2.5H16.41a1.25,1.25,0,0,0,0,2.5Z"/><path class="cls-1" d="M71.16,28.12H86.09a1.25,1.25,0,0,0,0-2.5H71.16a1.25,1.25,0,0,0,0,2.5Z"/><path class="cls-1" d="M35.44,35.94c-.1.1-9.8,9.59-24,9.59a1.25,1.25,0,0,0,0,2.5c15.28,0,25.35-9.9,25.77-10.32a1.25,1.25,0,0,0-1.76-1.77Z"/><path class="cls-1" d="M65.29,35.94a1.27,1.27,0,0,0,0,1.77C65.72,38.13,75.79,48,91.06,48a1.25,1.25,0,0,0,0-2.5c-14.21,0-23.9-9.49-24-9.59A1.25,1.25,0,0,0,65.29,35.94Z"/></g></g></svg>