<svg xmlns="http://www.w3.org/2000/svg" viewBox="0 0 62.5 102.64"><defs><style>.cls-1{fill:#414042;}</style></defs><title>Asset 20</title><g id="Layer_2" data-name="Layer 2"><g id="Layer_2-2" data-name="Layer 2"><path class="cls-1" d="M17.13,57.14l2.73-2.7A13,13,0,0,0,20,56.27V86.09L17.46,76a1.25,1.25,0,1,0-2.42.6l5,20a1.23,1.23,0,0,0,2.25.39l4.9-7.34c1.73,7.4,2.85,12,2.85,12a1.22,1.22,0,0,0,2.42,0s1.12-4.55,2.85-12l4.9,7.34a1.25,1.25,0,0,0,2.25-.39l5-20A1.25,1.25,0,1,0,45,76L42.5,86.09V56.25h0a10,10,0,0,0,.15-1.79l2.72,2.69a1.24,1.24,0,0,0,1.76,0l4.37-4.36,9.19,4.6a1.25,1.25,0,1,0,1.12-2.24l-10-5a1.25,1.25,0,0,0-1.44.24l-4.12,4.12-4-4,0-.11A44.71,44.71,0,0,1,39,41.66l12.67-4.22a1.26,1.26,0,0,0,.82-.9,1.24,1.24,0,0,0-.34-1.17L47.77,31l4.6-9.19a1.25,1.25,0,0,0-2.24-1.12l-5,10a1.25,1.25,0,0,0,.24,1.44l3.57,3.57L38.39,39.22c-.22-1.2-.41-2.39-.55-3.59a6.19,6.19,0,0,0-2.09-12,6.09,6.09,0,0,0-3.2,1c.53-17.48,9.18-22.2,9.27-22.24A1.25,1.25,0,0,0,40.69.13C40.35.3,34,3.67,31.25,15,28.51,3.67,22.15.3,21.81.13a1.25,1.25,0,0,0-1.13,2.24c.09,0,8.74,4.76,9.27,22.24a6.09,6.09,0,0,0-3.2-1,6.25,6.25,0,0,0-6.25,6.25,6.17,6.17,0,0,0,4.1,5.76A34.71,34.71,0,0,1,24,39.2L13.56,35.71l3.57-3.58a1.25,1.25,0,0,0,.24-1.44l-5-10a1.25,1.25,0,1,0-2.24,1.12L14.73,31l-4.36,4.37A1.24,1.24,0,0,0,10,36.54a1.26,1.26,0,0,0,.82.9L23.5,41.67a46,46,0,0,1-3.27,8.78l0,.06-.06.13-3.89,3.85-4.12-4.12a1.25,1.25,0,0,0-1.44-.24l-10,5a1.25,1.25,0,0,0,1.12,2.24L11,52.77l4.37,4.36A1.24,1.24,0,0,0,17.13,57.14Zm8.32-3L30,81.35v9.29l-1-4.42c-2.1-9.06-4.4-19.79-6.49-30.22h0a13.74,13.74,0,0,1-.11-2.88C22.47,53.17,24.51,53.88,25.45,54.12Zm1,32.13L22.5,92.12V68.47C23.82,74.7,25.15,80.77,26.41,86.25Zm13.07-35.7a23.31,23.31,0,0,1-2.94,1,19.48,19.48,0,0,1-6.92.67,19.15,19.15,0,0,1-3.45-.59c-.31-.08-3.24-1.08-3.22-1.13A48,48,0,0,0,27.5,30.35a2.71,2.71,0,0,1,2.7-2.85h2.1A2.64,2.64,0,0,1,35,30.2C34.83,34.37,36.33,43.83,39.48,50.55ZM28.07,54.63c1,.14,3.14.23,3.17.23a22.83,22.83,0,0,0,3.19-.24l-3.18,19ZM40,68.47V92.12l-3.91-5.87C37.35,80.77,38.68,74.7,40,68.47ZM33.53,86.22l-1,4.42V81.35l4.55-27.24c.92-.24,2.93-.94,3-1A10.18,10.18,0,0,1,40,56C37.93,66.43,35.63,77.16,33.53,86.22ZM27,26.11c-2,1.73-2.26,6.51-2.1,7A3.74,3.74,0,0,1,23,29.85C23,27.7,24.7,26.43,27,26.11Zm10.58,7c.18-1.08-.18-5.48-2.1-7,2.18.22,4,1.67,4,3.74A3.78,3.78,0,0,1,37.58,33.12Z"/></g></g></svg>