<svg xmlns="http://www.w3.org/2000/svg" viewBox="0 0 90.01 102.5"><defs><style>.cls-1{fill:#414042;}</style></defs><title>Asset 10</title><g id="Layer_2" data-name="Layer 2"><g id="Layer_2-2" data-name="Layer 2"><path class="cls-1" d="M1.25,61.21a1.26,1.26,0,0,0,.38-.06l7-2.23a1.21,1.21,0,0,0,.64-.47l4.16-6h3a57.42,57.42,0,0,0-.58,7.91,47.51,47.51,0,0,0,7.06,24.78h-4a1.25,1.25,0,0,0-1.23,1.06L15.91,97.42l-6,2.69a1.25,1.25,0,0,0,.51,2.39,1.34,1.34,0,0,0,.51-.11l6.61-3a1.25,1.25,0,0,0,.73-1L20,87.69h4.51c6.08,8.63,14.18,14,20.44,14s14.36-5.32,20.44-14H70l1.69,10.79a1.25,1.25,0,0,0,.73,1l6.62,3a1.25,1.25,0,0,0,1.65-.63,1.25,1.25,0,0,0-.63-1.65l-6-2.69L72.34,86.25a1.25,1.25,0,0,0-1.23-1.06H67A47.5,47.5,0,0,0,74,60.41a57.42,57.42,0,0,0-.57-7.91h3.14l4.16,6a1.25,1.25,0,0,0,.64.47l7,2.23a1.25,1.25,0,0,0,.76-2.38l-6.56-2.1-4.29-6.14a1.26,1.26,0,0,0-1-.53H73a50.58,50.58,0,0,0-3.73-12l8.59-6.26,7.63,5.41a1.25,1.25,0,1,0,1.45-2L78.57,29.2a1.26,1.26,0,0,0-1.46,0l-9,6.55c-.38-.7-.68-1.47-1.09-2.13,0,0,0,0,0,0-1.63-7.26-4.85-12.06-10-14.66-.86-4.85-3-8.81-5.81-11.15C54.73,6.14,56.86,2,57,1.8A1.25,1.25,0,0,0,54.73.69C54.7.74,52,6,48.23,6c-.06,0-.09.06-.15.07a8.12,8.12,0,0,0-6.32,0C41.7,6,41.67,6,41.61,6,37.8,6,35.14.74,35.11.69A1.25,1.25,0,0,0,32.87,1.8c.11.22,2.24,4.34,5.84,6-2.84,2.34-5,6.3-5.81,11.15-5.19,2.6-8.4,7.4-10,14.65,0,0,0,0-.05.05-.39.64-.68,1.37-1,2L12.9,29.21a1.26,1.26,0,0,0-1.46,0L3.08,35.13a1.25,1.25,0,1,0,1.45,2l7.63-5.41,8.47,6.17A50.31,50.31,0,0,0,16.85,50h-4.1a1.27,1.27,0,0,0-1,.53L7.43,56.67.87,58.77a1.25,1.25,0,0,0,.38,2.44Zm17-.8a49.9,49.9,0,0,1,6.17-24.67,79.75,79.75,0,0,0,19.21,2.63v48c0,4.07-1.82,7.73-5.29,10.93C28.8,92.3,18.29,77.68,18.29,60.41ZM26.47,30.2h1.72A12.38,12.38,0,0,0,40.44,19.35a33.45,33.45,0,0,1,8.94,0A12.43,12.43,0,0,0,61.64,30.2h1.73a29.22,29.22,0,0,1,1,3.19,76.21,76.21,0,0,1-19.4,2.51h0a77.71,77.71,0,0,1-19.4-2.51A28.57,28.57,0,0,1,26.47,30.2ZM40.79,98.36a19.42,19.42,0,0,0,4.14-5.85,18.92,18.92,0,0,0,4.14,5.84,11.31,11.31,0,0,1-8.28,0Zm10.67-1.07c-3.47-3.21-5.28-6.87-5.28-10.93v-48a79.75,79.75,0,0,0,19.21-2.63,49.89,49.89,0,0,1,6.16,24.67C71.54,77.67,61,92.29,51.46,97.29ZM62.29,27.7h-.65A10,10,0,0,1,52,19.83,15,15,0,0,1,62.29,27.7ZM44.92,7.9c4.1,0,7.78,4.09,9.25,10a23.86,23.86,0,0,0-3.7-.86h0a34,34,0,0,0-11,0h0a25.33,25.33,0,0,0-3.72.87C37.15,12,40.82,7.9,44.92,7.9ZM37.85,19.84a10,10,0,0,1-9.66,7.86h-.64A15,15,0,0,1,37.85,19.84Z"/><path class="cls-1" d="M32.33,53.81A6.83,6.83,0,1,0,25.5,47,6.83,6.83,0,0,0,32.33,53.81Zm0-11.15A4.33,4.33,0,1,1,28,47,4.33,4.33,0,0,1,32.33,42.66Z"/><path class="cls-1" d="M40.31,73.55a8,8,0,1,0-8,8A8,8,0,0,0,40.31,73.55Zm-8,5.48a5.48,5.48,0,1,1,5.48-5.48A5.49,5.49,0,0,1,32.33,79Z"/><path class="cls-1" d="M57.51,53.81A6.83,6.83,0,1,0,50.69,47,6.83,6.83,0,0,0,57.51,53.81Zm0-11.15A4.33,4.33,0,1,1,53.19,47,4.33,4.33,0,0,1,57.51,42.66Z"/><path class="cls-1" d="M57.51,65.57a8,8,0,1,0,8,8A8,8,0,0,0,57.51,65.57Zm0,13.46A5.48,5.48,0,1,1,63,73.55,5.49,5.49,0,0,1,57.51,79Z"/></g></g></svg>