<svg xmlns="http://www.w3.org/2000/svg" viewBox="0 0 102.5 102.5"><defs><style>.cls-1{fill:#414042;}</style></defs><title>Asset 1</title><g id="Layer_2" data-name="Layer 2"><g id="Layer_2-2" data-name="Layer 2"><path class="cls-1" d="M54.6,46l17.21-8.61a1.21,1.21,0,0,0,.48-.42l20-30a1.25,1.25,0,0,0-2.08-1.39L70.39,35.28l-12.81,6.4,4.55-4.55a1.27,1.27,0,0,0,.36-.71l5-35A1.25,1.25,0,0,0,65,1.07L60.07,35.66,52.5,43.23v-7a1.25,1.25,0,0,0-2.5,0v7l-7.57-7.57L37.49,1.07A1.27,1.27,0,0,0,36.07,0,1.25,1.25,0,0,0,35,1.42l5,35a1.27,1.27,0,0,0,.36.71l4.55,4.55-12.81-6.4L12.29,5.55a1.25,1.25,0,0,0-2.08,1.39l20,30a1.21,1.21,0,0,0,.48.42L47.9,46C35.3,49.89,0,61.74,0,71.25,0,72.89.74,75.83,5.73,77a20.53,20.53,0,0,0,4.72.48c10.7,0,27-5.91,31.92-15.67,2.84-5.69,5.62-7.9,7.29-8.76-.28,1.5-.56,3-.78,4.5l-8.67,13a1.25,1.25,0,0,0-.21.7v9.48L20.37,100.36a1.25,1.25,0,1,0,1.76,1.77l20-20a1.22,1.22,0,0,0,.37-.88V71.62l5.69-8.53A126.72,126.72,0,0,0,50,101.24l0,.25a1.19,1.19,0,0,0,1.25.88h0a1.38,1.38,0,0,0,1.25-1.13A126.3,126.3,0,0,0,54.3,63.08L60,71.62v9.63a1.22,1.22,0,0,0,.37.88l20,20a1.25,1.25,0,1,0,1.76-1.77L62.5,80.73V71.25a1.25,1.25,0,0,0-.21-.7l-8.68-13c-.22-1.49-.5-3-.78-4.48,1.68.86,4.46,3.07,7.3,8.76C65,71.57,81.35,77.48,92.05,77.48A20.53,20.53,0,0,0,96.77,77c5-1.17,5.73-4.11,5.73-5.75C102.5,61.74,67.2,49.89,54.6,46ZM40.13,60.69c-5,10.08-24.78,16-33.82,13.88C3.78,74,2.5,72.85,2.5,71.25,2.5,64.82,31,53.78,50,47.93V50.2C48,50.77,44,52.89,40.13,60.69Zm11.12,33.2a124.41,124.41,0,0,1,0-35.27A124,124,0,0,1,51.25,93.89ZM96.19,74.57c-9,2.14-28.78-3.8-33.82-13.88-3.9-7.8-7.88-9.92-9.87-10.49V47.93c19,5.85,47.5,16.89,47.5,23.32C100,72.85,98.72,74,96.19,74.57Z"/></g></g></svg>