<svg xmlns="http://www.w3.org/2000/svg" viewBox="0 0 102.5 102.5"><defs><style>.cls-1{fill:#414042;}</style></defs><title>Asset 16</title><g id="Layer_2" data-name="Layer 2"><g id="Layer_2-2" data-name="Layer 2"><path class="cls-1" d="M16.71,25.09a1.27,1.27,0,0,0-.86,0l-15,5a1.26,1.26,0,0,0,.8,2.38l14.56-4.86L39.29,36.8a21.31,21.31,0,0,0-.29,3c0,.07,0,.13,0,.19H26.25a1.23,1.23,0,0,0-1.07.61l-15,25a1.25,1.25,0,1,0,2.14,1.28L27,42.5H39.87a13.34,13.34,0,0,0,3.38,3.59l-12.38,4A1.25,1.25,0,0,0,30,51.38l5,50a1.25,1.25,0,0,0,1.24,1.12h.13a1.24,1.24,0,0,0,1.11-1.36l-4.89-49,13-4.17A3.86,3.86,0,0,1,47,50.66a4,4,0,0,1-1.44,3.26c-3.22,2.58-6.19,5.4-6.19,8.57,0,9.51,5.35,17.25,11.93,17.25S63.18,72,63.18,62.49c0-3.17-3-6-6.18-8.57a4,4,0,0,1-1.45-3.26A3.9,3.9,0,0,1,56.88,48l13,4.17-4.9,49a1.24,1.24,0,0,0,1.12,1.36h.12a1.24,1.24,0,0,0,1.24-1.12l5-50a1.25,1.25,0,0,0-.86-1.32l-12.38-4a13.34,13.34,0,0,0,3.38-3.59H75.54L90.18,66.89a1.24,1.24,0,0,0,1.71.43,1.23,1.23,0,0,0,.43-1.71l-15-25A1.23,1.23,0,0,0,76.25,40H63.46a1.06,1.06,0,0,0,0-.19,21.31,21.31,0,0,0-.29-3l23.08-9.22,14.56,4.86a1.26,1.26,0,1,0,.8-2.38l-15-5a1.27,1.27,0,0,0-.86,0L62.66,34.33a18.68,18.68,0,0,0-1.07-2.91L72.08,17.23,101.81,2.37A1.25,1.25,0,1,0,100.69.13l-30,15a1.36,1.36,0,0,0-.45.38L60.25,29A13.9,13.9,0,0,0,58.35,27,13.41,13.41,0,0,0,59,22.89a11.66,11.66,0,0,0-.19-1.39,7.61,7.61,0,0,0,3.65-5.38c.68-5.25-4.53-10.53-4.76-10.75a1.24,1.24,0,1,0-1.76,1.76s4.57,4.65,4,8.67a4.84,4.84,0,0,1-1.8,3.11c-1.1-2.45-3.32-3.75-6.91-3.75-3.35,0-5.47,1.17-6.64,3.3a4.74,4.74,0,0,1-1.53-2.78c-.43-4,4-8.5,4.05-8.55a1.24,1.24,0,1,0-1.76-1.76c-.22.21-5.32,5.38-4.78,10.56a7.4,7.4,0,0,0,3.18,5.2,10.36,10.36,0,0,0-.25,1.76A13.41,13.41,0,0,0,44.15,27,14.26,14.26,0,0,0,42,29.41L32.27,15.53a1.27,1.27,0,0,0-.46-.4l-30-15A1.27,1.27,0,0,0,.13.69,1.25,1.25,0,0,0,.69,2.37L30.41,17.23l10.27,14.6a19.82,19.82,0,0,0-.84,2.5ZM55.82,45.5a6.51,6.51,0,0,0-.39,10.37c2.6,2.08,5.25,4.5,5.25,6.62,0,8.14-4.23,14.75-9.43,14.75s-9.43-6.61-9.43-14.75c0-2.12,2.66-4.54,5.26-6.63a6.49,6.49,0,0,0,2.37-5.31,6.42,6.42,0,0,0-2.78-5c-2.56-1.74-5.17-3.78-5.17-5.69,0-4.67,1.84-9.09,4.82-11.55a7.74,7.74,0,0,1,9.87,0c3,2.46,4.81,6.88,4.81,11.55C61,41.72,58.39,43.76,55.82,45.5ZM51.25,17.66c3.23,0,5.23.88,5.23,5.23a12.29,12.29,0,0,1-.23,2.4,9.81,9.81,0,0,0-10,0,12.29,12.29,0,0,1-.23-2.4C46,18.54,48,17.66,51.25,17.66Z"/></g></g></svg>