<svg xmlns="http://www.w3.org/2000/svg" viewBox="0 0 82.52 102.5"><defs><style>.cls-1{fill:#414042;}</style></defs><title>Asset 12</title><g id="Layer_2" data-name="Layer 2"><g id="Layer_2-2" data-name="Layer 2"><path class="cls-1" d="M25.62,35.42a1.17,1.17,0,0,0,.77.27,1.25,1.25,0,0,0,1-.47,2.47,2.47,0,0,1,3.24-.52l.55.34a1.27,1.27,0,0,0,1.71-.45,1.25,1.25,0,0,0-.44-1.71L32,32.59a4.93,4.93,0,0,0-6.54,1.08A1.23,1.23,0,0,0,25.62,35.42Z"/><path class="cls-1" d="M50.67,35.21A1.32,1.32,0,0,0,51.3,35l.55-.34a2.52,2.52,0,0,1,2.8.08,1.25,1.25,0,0,0,1.49-2,5,5,0,0,0-5.63-.19l-.48.29a1.25,1.25,0,0,0,.64,2.33Z"/><path class="cls-1" d="M30.54,42.23a1.27,1.27,0,0,0,.78.27,1.25,1.25,0,0,0,1-.47,2.46,2.46,0,0,1,3.25-.51l.53.32a1.25,1.25,0,1,0,1.29-2.14l-.49-.3a4.92,4.92,0,0,0-6.54,1.08A1.24,1.24,0,0,0,30.54,42.23Z"/><path class="cls-1" d="M46.46,42.5a1.15,1.15,0,0,0,.64-.18l.54-.33a2.51,2.51,0,0,1,2.8.09,1.23,1.23,0,0,0,1.74-.26,1.25,1.25,0,0,0-.25-1.75,5,5,0,0,0-5.63-.18l-.48.29a1.23,1.23,0,0,0-.43,1.71A1.25,1.25,0,0,0,46.46,42.5Z"/><path class="cls-1" d="M70.12,61.74a1.21,1.21,0,0,0,.59.63l10,5a1.25,1.25,0,1,0,1.12-2.24l-9.59-4.79L66.06,45.76c0-.07-.12-.09-.16-.15a6.8,6.8,0,0,0-1.81-2.38,6.07,6.07,0,0,0-1.64-.84c0-.38,0-.76,0-1.14a20.69,20.69,0,0,0-.62-4.79L67.34,22l4.81-4.81a1.25,1.25,0,1,0-1.76-1.77l-5,5a1.09,1.09,0,0,0-.29.44L60.61,32.73A21.35,21.35,0,0,0,58,28.23a5.09,5.09,0,0,0-5.52-1.65c0-.11.06-.22.06-.33,0-2.25-1.94-4.15-5-5.24C47.77,11.87,61.8,2.39,61.94,2.29A1.25,1.25,0,1,0,60.56.21c-.62.41-14.7,9.94-15.49,20.16a20,20,0,0,0-7.65,0C36.64,10.15,22.56.62,21.94.21a1.25,1.25,0,1,0-1.38,2.08C20.7,2.39,34.73,11.86,35,21c-3,1.09-5,3-5,5.24,0,.11.05.22.06.33a5.09,5.09,0,0,0-5.52,1.65,20.75,20.75,0,0,0-2.64,4.48l-4.48-11.9a1.09,1.09,0,0,0-.29-.44l-5-5a1.25,1.25,0,1,0-1.76,1.77L15.18,22l5.45,14.48A21,21,0,0,0,20,41.25c0,.38,0,.76.05,1.14a6.07,6.07,0,0,0-1.64.84,7,7,0,0,0-1.83,2.41s-.1.06-.12.12L10.28,60.34.69,65.13a1.25,1.25,0,0,0,1.12,2.24l10-5a1.21,1.21,0,0,0,.59-.63L15,55.56a52.86,52.86,0,0,0,1.23,10.85s0,0,0,0L20,91.05l-4.83,9.64a1.25,1.25,0,0,0,2.24,1.12l5-10a1.35,1.35,0,0,0,.12-.74l-2-13.2C25.3,86.75,32.81,92.5,41.25,92.5s16-5.77,20.78-14.68L60,91.07a1.35,1.35,0,0,0,.12.74l5,10a1.25,1.25,0,0,0,2.24-1.12l-4.83-9.64,3.71-24.61s0,0,0-.07a52.19,52.19,0,0,0,1.23-10.86ZM65,55a45,45,0,0,1-6.33,23.71,73.49,73.49,0,0,0-.15-30.48l-.77-3.48c2-.35,3.7-.37,4.82.49C64.2,46.47,65,49.67,65,55ZM36.19,29.25c-2.26-.74-3.69-1.91-3.69-3a1.28,1.28,0,0,1,.13-.49,5.59,5.59,0,0,0,8.62-.63,5.59,5.59,0,0,0,8.62.63,1.28,1.28,0,0,1,.13.49c0,1.09-1.43,2.26-3.69,3A18.7,18.7,0,0,1,36.19,29.25Zm3.63-6.68A3.26,3.26,0,0,1,36.7,25a3.12,3.12,0,0,1-2.18-1A13.59,13.59,0,0,1,39.82,22.57ZM48,24a3.12,3.12,0,0,1-2.18,1,3.25,3.25,0,0,1-3.11-2.43A13.54,13.54,0,0,1,48,24ZM26.5,29.78A2.7,2.7,0,0,1,30,29.22a20.52,20.52,0,0,0,4.41,2.05c.32.13.64.25,1,.36h0a19.85,19.85,0,0,0,11.56,0h0c.34-.11.66-.23,1-.36a20.52,20.52,0,0,0,4.41-2.05,2.7,2.7,0,0,1,3.54.56,18.34,18.34,0,0,1,4,11.47c0,.25,0,.5,0,.75a30.15,30.15,0,0,0-7.5,1.41,43.26,43.26,0,0,1-11.21,1.94A43.26,43.26,0,0,1,30,43.41,30.15,30.15,0,0,0,22.54,42c0-.25,0-.5,0-.75A18.34,18.34,0,0,1,26.5,29.78ZM22.58,44.47a14.13,14.13,0,0,1,2.17.29L24,48.21a73.66,73.66,0,0,0-.16,30.48A45,45,0,0,1,17.5,55c0-5.31.8-8.51,2.43-9.76A4.26,4.26,0,0,1,22.58,44.47Zm4.81,38.89a71.15,71.15,0,0,1-1-34.61l.78-3.49,2.19.56c1.68.45,3.47.93,5.35,1.31L34,50a73.89,73.89,0,0,0-.68,32.65l1.23,5.94A21.7,21.7,0,0,1,27.39,83.36Zm9.92,6.12L35.8,82.13a71.45,71.45,0,0,1,.65-31.54l.77-3.05a29.49,29.49,0,0,0,4,.31,29.49,29.49,0,0,0,4-.31L46,50.59a71.3,71.3,0,0,1,.66,31.54l-1.51,7.35a15.19,15.19,0,0,1-7.88,0Zm10.61-.91,1.23-5.94A73.89,73.89,0,0,0,48.47,50l-.71-2.85c1.88-.38,3.67-.86,5.35-1.31l2.19-.57.78,3.5a71.15,71.15,0,0,1-1,34.61A21.8,21.8,0,0,1,47.92,88.57Z"/></g></g></svg>